<?xml version="1.0" standalone="no"?>
<!DOCTYPE svg PUBLIC "-//W3C//DTD SVG 20010904//EN"
 "http://www.w3.org/TR/2001/REC-SVG-20010904/DTD/svg10.dtd">
<svg version="1.0" xmlns="http://www.w3.org/2000/svg"
 width="790.000000pt" height="790.000000pt" viewBox="0 0 790.000000 790.000000"
 preserveAspectRatio="xMidYMid meet">
<metadata>
Created by potrace 1.14, written by Peter Selinger 2001-2017
</metadata>
<g transform="translate(0.000000,790.000000) scale(0.100000,-0.100000)"
fill="#000000" stroke="none">
<path d="M0 3950 l0 -3950 3950 0 3950 0 0 3950 0 3950 -3950 0 -3950 0 0
-3950z m4380 3674 c245 -31 537 -125 711 -230 80 -48 149 -112 149 -137 0 -7
-7 -4 -15 7 -21 28 -30 12 -17 -31 17 -54 30 -72 41 -55 6 11 10 10 15 -4 5
-12 1 -23 -9 -30 -12 -9 -13 -13 -3 -17 10 -3 10 -7 1 -17 -9 -10 -21 -6 -55
18 -23 16 -111 66 -195 111 -182 98 -336 151 -543 188 -130 24 -171 27 -400
27 -311 1 -395 -10 -688 -94 -254 -72 -534 -196 -667 -295 -74 -55 -90 -58
-254 -57 -85 1 -156 3 -157 5 -3 3 75 62 226 168 153 108 389 219 660 309 426
142 796 184 1200 134z m-1366 -45 c3 -3 -33 -18 -82 -34 -48 -15 -144 -54
-213 -86 l-126 -58 -274 11 c-325 12 -654 5 -754 -17 -97 -21 -249 -72 -319
-107 -75 -37 -199 -129 -254 -187 -66 -71 -152 -205 -183 -284 -15 -40 -37
-118 -49 -172 -20 -92 -23 -142 -30 -605 -9 -560 -7 -546 -81 -679 -18 -31
-41 -72 -51 -91 l-20 -35 6 30 c5 29 5 29 -5 5 -6 -14 -15 -33 -20 -42 -5 -10
-9 -41 -10 -70 -1 -42 -3 -48 -9 -28 -4 14 -8 329 -9 702 -1 627 0 684 18 790
34 196 88 331 192 478 154 218 375 362 684 446 89 24 124 28 320 33 280 8
1261 8 1269 0z m2609 -5 l87 -6 133 -87 c131 -87 208 -150 277 -225 50 -56
211 -267 274 -361 70 -104 171 -338 206 -479 79 -310 64 -716 -35 -1017 -33
-97 -172 -382 -231 -470 l-44 -67 -73 -12 c-39 -6 -91 -15 -114 -19 -49 -9
-52 -4 -20 36 105 126 287 477 340 653 46 152 60 268 60 480 0 217 -13 312
-64 465 -54 163 -114 271 -256 460 -167 222 -281 331 -508 481 -100 67 -178
133 -197 167 -9 17 -6 18 34 13 24 -3 82 -8 131 -12z m665 -23 c258 -86 548
-272 694 -446 179 -212 326 -502 422 -839 49 -172 68 -300 69 -486 2 -195 -15
-333 -64 -530 -92 -373 -258 -713 -522 -1067 -92 -125 -206 -255 -186 -213 7
14 15 27 18 30 26 21 62 84 58 101 -3 10 -2 19 2 19 6 0 25 35 51 95 15 33 15
32 4 59 -6 16 -5 17 15 6 20 -10 22 -10 13 7 -5 11 -6 31 0 50 6 25 12 31 26
26 16 -6 16 -6 0 11 -22 21 -21 16 -2 55 14 28 18 30 32 19 15 -12 16 -11 3 5
-13 16 -13 22 -1 40 33 53 155 309 216 453 135 319 193 658 165 964 -26 282
-166 672 -308 857 -27 34 -82 106 -123 160 -115 151 -260 291 -359 348 -45 27
-97 64 -115 83 -33 36 -113 88 -122 79 -8 -8 37 -47 55 -48 11 0 12 -2 3 -6
-10 -4 -10 -8 -1 -19 6 -8 8 -14 4 -14 -13 0 52 -74 167 -190 241 -245 410
-510 421 -663 2 -32 0 -60 -4 -63 -5 -3 -9 -14 -9 -25 0 -11 -4 -17 -10 -14
-5 3 -10 1 -10 -4 0 -6 3 -11 8 -11 4 0 7 -33 7 -72 1 -40 4 -167 9 -283 13
-320 -10 -487 -105 -748 -104 -289 -270 -493 -339 -419 -18 19 -18 21 6 63 60
107 158 320 200 437 89 244 112 424 95 747 -15 294 -19 328 -43 410 -50 172
-147 338 -357 609 -161 209 -261 316 -365 391 -39 28 -72 55 -73 62 -3 8 31
10 130 8 118 -3 146 -7 225 -34z m-864 -78 c41 -60 91 -124 110 -142 20 -19
36 -40 36 -47 0 -7 7 -20 15 -28 9 -8 22 -32 30 -53 l14 -38 1 30 2 30 12 -28
c7 -15 14 -25 17 -22 13 12 41 -117 47 -214 16 -256 -17 -536 -85 -719 -19
-54 -42 -117 -51 -142 -30 -83 -137 -218 -158 -197 -7 7 20 118 59 240 14 42
22 77 19 77 -11 0 -130 -203 -138 -235 -4 -16 -20 -50 -37 -75 -34 -52 -244
-260 -261 -260 -7 0 -17 31 -25 73 -7 39 -18 88 -24 107 l-12 35 78 74 c55 53
107 117 176 220 86 130 102 160 138 271 68 207 85 388 59 616 -21 178 -54 304
-111 419 -25 50 -45 94 -45 97 0 6 8 8 52 17 4 0 41 -47 82 -106z m-963 -186
c158 -31 305 -80 440 -146 96 -48 244 -146 307 -205 42 -38 82 -109 52 -91 -7
4 -9 -3 -6 -20 4 -22 3 -25 -9 -15 -11 9 -15 7 -19 -12 -3 -12 -5 -30 -4 -38
3 -31 -2 -51 -12 -45 -7 4 -7 -3 0 -20 6 -15 10 -29 10 -32 0 -3 -49 45 -110
107 -60 63 -110 118 -110 124 0 14 -160 93 -225 111 -27 8 -119 35 -204 60
-84 25 -192 52 -240 61 -117 21 -427 30 -517 15 -91 -16 -310 -65 -404 -92
-97 -27 -148 -38 -183 -39 -25 0 -27 3 -22 23 6 18 5 20 -6 10 -17 -17 -37
-17 -21 -1 7 7 12 16 12 21 0 5 -7 1 -16 -8 -13 -13 -19 -13 -32 -3 -12 10
-16 10 -19 1 -4 -10 -8 -9 -20 2 -16 16 -38 21 -29 6 3 -5 -8 -8 -24 -7 -17 1
-30 -2 -30 -7 0 -4 -4 -5 -10 -2 -5 3 -10 1 -10 -6 0 -10 -3 -10 -12 -1 -9 9
-19 7 -45 -9 -19 -12 -36 -19 -39 -16 -15 15 255 146 391 190 288 93 455 117
780 113 220 -3 266 -6 386 -29z m-2670 -28 c4 -13 7 -77 8 -141 l1 -116 -29
-7 c-31 -7 -78 2 -98 18 -9 7 -12 44 -11 132 l3 122 50 10 c64 12 68 11 76
-18z m492 22 c21 -5 42 -12 45 -16 9 -9 -63 -71 -153 -133 l-70 -48 0 98 0 97
30 4 c57 7 110 6 148 -2z m-255 -18 c13 -26 23 -157 16 -203 -6 -35 -11 -41
-43 -50 -20 -5 -50 -10 -68 -10 l-31 0 4 78 c3 42 7 105 10 140 l6 62 48 0
c37 0 52 -4 58 -17z m-473 -65 c3 -35 5 -172 3 -305 l-3 -242 -42 -43 c-23
-24 -49 -56 -57 -72 l-15 -29 -5 34 c-3 19 -7 179 -9 357 -4 237 -2 324 7 326
6 2 31 10 56 19 25 8 48 16 52 16 3 1 9 -27 13 -61z m-241 -70 c8 -71 14 -588
7 -653 -4 -40 -10 -59 -19 -57 -6 1 -12 -5 -12 -13 0 -8 -6 -14 -12 -12 -7 1
-12 -2 -11 -8 0 -5 -5 -16 -13 -23 -12 -11 -14 -10 -14 5 -1 17 -2 17 -15 -1
-8 -11 -15 -34 -15 -50 1 -29 1 -30 15 -12 25 33 24 13 0 -22 l-23 -34 -6 84
c-3 46 -8 235 -11 420 l-5 338 37 19 c21 10 47 28 57 40 27 30 34 26 40 -21z
m4646 -138 c34 -48 54 -145 53 -265 -2 -261 -53 -459 -185 -724 -51 -102 -112
-210 -135 -240 -155 -201 -267 -333 -325 -381 -74 -62 -268 -167 -288 -155 -8
5 -10 21 -6 49 3 22 9 64 12 93 7 53 27 74 56 57 7 -4 10 -4 6 1 -4 4 37 42
90 85 54 42 123 106 154 141 31 35 83 94 115 131 97 112 206 303 262 461 27
76 57 168 65 206 20 87 39 376 34 519 l-3 110 37 -30 c21 -16 47 -42 58 -58z
m-1656 -5 c205 -34 432 -125 610 -243 98 -64 246 -213 246 -247 0 -14 5 -25
11 -25 6 0 8 -9 4 -22 -6 -23 -6 -23 11 -3 l17 20 -7 -20 c-17 -50 -42 -105
-47 -105 -4 0 -15 12 -24 27 -59 89 -169 170 -410 301 -211 114 -247 127 -493
172 -87 15 -170 34 -187 41 -16 6 -36 13 -43 13 -7 1 -16 6 -20 13 -4 6 -56
18 -115 25 -59 7 -107 15 -107 18 0 11 46 32 102 46 66 17 323 11 452 -11z
m-3232 -262 c-6 -673 -5 -646 -27 -678 -10 -17 -43 -68 -73 -115 l-53 -85 5
235 c3 129 8 349 12 488 l5 253 57 74 c31 41 62 75 67 75 6 0 9 -87 7 -247z
m2671 77 c151 -29 253 -63 380 -126 267 -135 443 -304 600 -581 84 -147 151
-354 177 -546 13 -95 6 -265 -17 -376 -15 -78 -98 -298 -135 -360 -27 -46
-107 -157 -133 -185 -11 -12 -32 -40 -47 -62 -50 -71 -101 -113 -134 -110 -16
2 -35 -1 -41 -6 -19 -15 -16 -2 3 17 9 9 14 18 12 21 -3 2 -17 -8 -32 -23 -20
-20 -24 -28 -14 -35 7 -4 9 -8 3 -9 -5 0 1 -5 15 -9 25 -8 24 -8 -5 -9 -54 -1
-63 -4 -58 -18 3 -8 -3 -13 -16 -13 -12 0 -32 -11 -45 -25 -13 -13 -25 -22
-28 -19 -9 8 -113 -54 -110 -66 1 -6 -2 -9 -6 -6 -5 3 -62 -12 -127 -34 -88
-30 -122 -37 -136 -29 -15 8 -17 6 -12 -7 5 -14 1 -15 -28 -9 -38 8 -61 23
-54 35 3 5 0 12 -6 16 -7 4 -9 3 -5 -4 3 -6 1 -14 -5 -18 -7 -4 -9 -3 -5 4 3
6 2 13 -4 17 -15 9 -12 35 4 35 8 0 16 -7 20 -15 3 -8 10 -15 16 -15 7 0 6 5
-2 14 -8 8 -13 31 -12 54 1 36 -1 40 -16 32 -12 -6 -23 -5 -36 6 -18 14 -18
15 4 4 15 -7 22 -7 22 0 0 5 -5 10 -11 10 -5 0 -7 5 -3 12 5 8 2 9 -10 5 -13
-5 -17 -3 -13 7 4 10 1 13 -7 10 -7 -3 -18 5 -24 18 -10 19 -11 20 -9 3 1 -14
-4 -19 -20 -19 -13 0 -23 3 -22 8 0 4 -8 14 -17 21 -16 11 -17 15 -4 31 14 17
13 18 -2 6 -14 -11 -22 -5 -61 50 -84 119 -120 178 -113 186 4 4 53 10 109 14
204 13 376 86 524 221 158 145 235 333 219 534 -9 104 -28 168 -77 263 -91
172 -227 310 -399 401 -173 92 -153 90 -893 99 -439 5 -652 12 -661 19 -7 6
-18 28 -24 48 -6 21 -29 67 -50 103 -22 36 -42 74 -46 85 -3 11 -15 26 -26 33
-21 13 -21 12 -4 -15 24 -37 20 -34 -79 80 -47 54 -102 123 -123 155 -21 31
-46 66 -56 77 -17 20 -16 20 894 18 879 -2 915 -3 1021 -23z m2437 -149 c0
-22 4 -42 8 -45 5 -3 8 -19 7 -36 -1 -16 1 -30 5 -30 3 0 4 -16 2 -35 -3 -22
0 -35 7 -35 7 0 9 5 6 10 -3 6 -1 10 4 10 10 0 16 -29 12 -52 0 -5 5 -8 13 -8
8 0 17 -8 19 -17 3 -11 5 -7 6 10 0 15 6 27 11 27 15 0 12 -313 -4 -385 -48
-213 -102 -358 -198 -525 -127 -222 -238 -374 -399 -544 -191 -202 -486 -410
-719 -506 -72 -30 -229 -75 -236 -68 -2 2 37 17 86 34 50 16 90 32 90 36 0 3
-9 4 -20 1 -12 -3 -20 0 -20 6 0 7 5 9 11 5 8 -4 9 1 4 15 -4 14 -1 31 9 47
13 19 14 29 5 45 -13 25 -17 21 86 79 299 167 706 513 842 716 101 150 223
416 239 519 10 65 9 138 -1 155 -5 8 -4 11 2 7 6 -4 14 0 17 9 4 10 2 13 -6 8
-6 -4 -3 7 8 24 13 23 21 28 27 19 6 -8 7 -7 4 5 -3 9 0 51 8 95 7 43 21 160
31 261 10 100 22 182 26 182 4 0 8 -18 8 -39z m-4377 -90 c17 -24 25 -41 19
-37 -8 5 -10 1 -6 -9 4 -9 13 -14 22 -10 24 9 13 -5 -244 -296 -261 -297 -474
-630 -660 -1036 -54 -118 -151 -410 -194 -584 -32 -130 -60 -299 -90 -532 -11
-87 -22 -162 -25 -168 -4 -5 -8 -18 -10 -30 -2 -12 -9 -27 -15 -34 -26 -31
-57 -106 -54 -132 2 -17 0 -23 -5 -15 -10 17 -51 -57 -51 -91 1 -19 3 -18 15
8 11 23 13 24 9 6 -10 -37 -34 -91 -41 -91 -9 0 4 554 17 700 19 223 101 579
180 780 20 52 51 136 70 185 36 101 126 299 168 373 225 395 535 803 785 1034
53 49 63 55 71 40 5 -9 23 -37 39 -61z m5237 -191 c50 -90 66 -130 93 -235 54
-207 59 -419 17 -655 -38 -208 -170 -563 -234 -628 -21 -22 -25 -22 -97 -11
l-74 11 63 129 c66 135 145 336 167 429 45 184 69 389 61 510 -9 113 -34 349
-46 430 -5 36 -10 74 -10 85 0 17 2 17 14 5 8 -8 29 -40 46 -70z m-5173 -98
c-31 -32 -34 -44 -10 -35 13 5 15 2 10 -16 -4 -16 -2 -21 7 -18 10 4 13 -8 11
-48 -1 -48 -6 -57 -54 -111 -29 -33 -92 -117 -141 -189 -49 -71 -100 -141
-113 -155 -34 -37 -189 -306 -258 -450 -33 -69 -69 -141 -79 -160 -19 -37
-110 -273 -110 -287 0 -11 -58 -164 -71 -186 -5 -10 -7 -22 -4 -27 4 -6 2 -10
-3 -10 -6 0 -10 -15 -10 -32 0 -40 -19 -91 -31 -84 -4 3 -13 -7 -20 -22 -11
-25 -10 -26 4 -8 19 26 19 4 0 -34 -18 -36 -25 -38 -19 -7 2 12 2 16 -2 10 -3
-7 -12 -13 -20 -13 -9 0 -12 -5 -8 -12 5 -8 2 -9 -10 -5 -14 6 -16 3 -11 -16
6 -21 5 -21 -9 -3 -14 17 -16 17 -31 2 -9 -9 -20 -16 -25 -16 -5 0 -13 -12
-18 -27 -44 -121 43 268 103 462 134 429 284 720 585 1131 101 139 215 273
288 341 67 61 100 78 49 25z m747 -244 c3 -40 7 -304 9 -586 3 -355 8 -517 15
-524 20 -20 256 -22 361 -4 52 9 95 15 96 14 7 -8 98 -160 171 -284 45 -77
124 -205 174 -285 51 -79 120 -187 153 -239 33 -52 99 -154 146 -227 47 -72
133 -205 190 -295 130 -203 245 -382 363 -563 82 -126 174 -274 409 -658 43
-70 91 -146 107 -170 16 -23 54 -82 84 -132 30 -49 88 -142 130 -205 137 -210
214 -334 276 -445 35 -60 103 -161 152 -223 49 -62 117 -159 150 -216 33 -57
69 -111 80 -121 13 -12 20 -31 20 -57 0 -21 -3 -38 -7 -38 -3 0 -29 24 -57 53
-28 29 -63 62 -78 74 -24 19 -27 20 -33 5 -5 -14 -7 -14 -15 -2 -5 8 -5 19 1
26 12 15 -78 187 -93 178 -7 -4 -8 -2 -4 5 4 6 -25 55 -70 116 -66 88 -81 102
-94 92 -13 -10 -13 -10 -2 5 12 15 11 22 -7 47 -12 16 -21 32 -21 36 0 4 -23
45 -51 91 -45 75 -53 83 -70 74 -20 -11 -26 -30 -9 -30 6 0 10 -5 10 -12 0 -6
-9 -3 -20 7 -19 17 -20 17 -29 -6 -7 -17 -10 -19 -10 -7 -1 9 4 20 9 23 15 9
2 25 -15 18 -9 -3 -21 0 -29 6 -10 9 -17 7 -27 -5 -11 -13 -11 -15 2 -14 29 5
41 0 35 -15 -3 -8 4 -21 17 -30 25 -17 16 -21 -11 -4 -15 10 -23 7 -45 -15
-28 -28 -35 -42 -16 -30 7 4 7 -2 -1 -17 -7 -13 -9 -21 -5 -17 5 4 14 3 22 -3
11 -9 12 -5 7 22 -4 19 -4 31 0 27 4 -3 8 -10 8 -15 0 -4 4 -15 8 -23 5 -9 3
-23 -6 -35 -12 -17 -14 -17 -14 -2 0 14 -6 16 -27 11 -16 -3 -36 -6 -45 -6
-10 1 -17 -4 -15 -10 1 -6 -11 -12 -28 -15 -16 -2 -25 0 -19 4 6 5 10 18 9 30
-1 14 3 19 12 16 10 -4 11 -9 2 -19 -8 -9 -8 -14 -1 -14 6 0 14 5 17 10 4 6
12 10 18 9 27 -3 36 2 31 16 -4 8 -1 15 6 15 6 0 8 4 5 10 -3 5 -1 18 4 29 10
18 7 19 -31 17 -23 -1 -43 -7 -45 -13 -2 -5 9 -9 25 -8 22 1 28 -3 27 -17 -1
-10 -7 -24 -13 -30 -10 -10 -12 -7 -10 12 2 19 -2 25 -17 25 -11 0 -23 -4 -26
-9 -9 -12 -42 1 -35 13 3 5 -1 12 -10 15 -9 4 -12 11 -7 18 15 25 12 40 -8 35
-12 -3 -19 0 -19 9 0 10 6 11 23 5 12 -4 29 -6 37 -4 10 3 11 2 4 -4 -14 -10
-28 -53 -17 -53 14 0 39 20 25 20 -9 0 -10 4 0 19 6 10 17 17 25 14 7 -3 10
-9 7 -14 -3 -5 -10 -7 -15 -4 -5 4 -9 2 -9 -4 0 -21 16 -19 39 5 17 17 26 21
31 13 5 -7 13 -8 23 -3 11 7 13 14 7 24 -7 10 -10 11 -10 3 0 -7 -4 -13 -8
-13 -11 0 -9 31 3 50 8 13 7 13 -8 1 -10 -8 -21 -11 -24 -7 -9 9 18 27 32 22
6 -1 10 -11 10 -21 0 -10 6 -20 12 -22 9 -3 11 4 7 24 -4 20 0 36 15 53 16 20
20 22 21 8 0 -9 -6 -21 -12 -25 -7 -4 -14 -17 -15 -28 -1 -19 -1 -19 11 -2 16
20 30 23 23 4 -3 -8 -1 -20 3 -27 7 -11 11 -11 24 -1 13 11 16 11 16 -3 0 -9
5 -16 11 -16 5 0 8 4 4 9 -3 5 3 12 14 16 18 5 16 11 -23 68 -24 34 -62 95
-86 135 -48 82 -55 89 -55 57 0 -15 4 -21 14 -17 10 4 13 1 8 -12 -4 -9 -3
-15 2 -12 5 3 11 -1 15 -9 6 -17 -10 -30 -19 -16 -10 17 -48 -4 -50 -27 -2
-24 9 -29 21 -11 3 6 0 15 -7 20 -9 6 -10 9 -2 9 21 0 25 -19 11 -51 -11 -24
-18 -29 -38 -25 -14 3 -19 3 -11 -1 11 -4 11 -7 0 -14 -8 -5 -20 -2 -31 8 -10
9 -18 11 -18 6 0 -6 7 -14 16 -17 9 -4 13 -13 10 -24 -4 -13 0 -18 14 -19 22
-2 27 13 8 20 -7 2 -10 8 -6 12 4 4 16 -2 26 -15 16 -20 21 -21 40 -9 12 8 22
19 22 26 0 13 -20 29 -20 16 0 -4 -4 -14 -9 -22 -8 -12 -12 -11 -28 4 -17 18
-17 18 5 13 12 -3 20 -2 16 3 -3 5 -1 9 5 9 6 0 8 6 5 14 -3 9 3 17 15 21 12
3 21 11 21 16 0 6 -5 7 -12 3 -7 -4 -8 -3 -4 5 6 9 11 9 22 0 8 -6 14 -8 14
-3 0 5 5 1 11 -9 5 -9 7 -22 3 -29 -5 -7 -2 -9 9 -5 17 6 32 -19 17 -28 -6 -4
-10 -2 -10 3 0 6 -7 13 -16 16 -12 4 -15 2 -10 -9 7 -18 -10 -20 -18 -2 -3 6
-4 3 -1 -8 5 -23 -8 -50 -21 -43 -5 3 -20 -5 -34 -18 -14 -13 -19 -24 -12 -24
8 0 10 -5 6 -12 -5 -7 -2 -9 9 -5 11 4 14 2 10 -8 -3 -8 -10 -12 -16 -8 -6 3
-7 1 -3 -5 9 -15 -3 -15 -29 1 -23 14 -31 51 -9 43 12 -5 12 -2 3 15 -12 24
-21 19 -25 -14 -1 -12 -3 -24 -3 -26 -1 -2 -10 6 -20 18 l-19 22 -23 -33 c-12
-18 -24 -35 -26 -37 -1 -2 -9 2 -17 8 -8 7 -19 10 -24 7 -6 -3 -15 1 -22 9 -9
10 -9 15 -1 15 6 0 11 -4 11 -10 0 -5 6 -7 14 -4 8 3 17 0 21 -5 3 -6 11 -9
16 -5 5 3 7 10 4 15 -4 5 -1 9 4 9 6 0 11 9 11 20 0 13 5 18 15 14 9 -4 15 0
15 10 0 9 -5 15 -11 13 -6 -1 -14 4 -16 11 -4 11 -1 12 15 3 11 -6 28 -8 36
-5 18 7 22 24 6 24 -5 0 -10 -4 -10 -10 0 -5 -5 -10 -11 -10 -6 0 -8 9 -5 20
17 57 18 64 11 58 -10 -10 -37 11 -29 23 3 5 -3 6 -12 2 -14 -5 -16 -3 -11 11
4 10 3 15 -3 11 -6 -3 -10 0 -10 7 0 16 59 21 77 7 9 -8 13 -8 13 0 0 6 5 11
11 11 5 0 8 -4 5 -9 -3 -5 0 -11 7 -14 10 -4 13 2 9 19 -2 14 -9 21 -16 17 -6
-4 -5 1 3 10 8 10 11 20 8 23 -3 3 -12 -3 -19 -15 -14 -22 -53 -30 -45 -8 2 6
10 11 16 9 7 -1 10 2 6 8 -3 5 -1 10 4 10 6 0 11 6 11 13 0 6 -14 -3 -31 -21
-30 -33 -63 -40 -82 -17 -5 6 -6 1 -2 -10 4 -11 8 -28 9 -37 0 -9 9 -23 19
-31 16 -11 17 -15 4 -25 -15 -13 -47 -6 -47 10 0 5 10 7 23 3 19 -5 20 -4 4 5
-20 13 -41 4 -34 -14 3 -7 1 -19 -4 -27 -6 -10 -9 -10 -9 -1 0 6 -5 12 -11 12
-5 0 -7 -5 -4 -10 3 -6 1 -10 -4 -10 -6 0 -11 6 -11 13 0 8 -4 7 -10 -3 -5 -8
-10 -10 -10 -5 0 6 5 16 12 23 14 14 0 16 -21 3 -8 -5 -11 -16 -8 -26 4 -10 3
-14 -4 -9 -6 3 -9 15 -6 25 3 11 1 19 -4 19 -5 0 -9 -4 -9 -9 0 -5 -8 -7 -19
-4 -10 3 -22 -1 -27 -8 -5 -9 -2 -10 12 -5 18 7 18 6 2 -11 -17 -16 -18 -16
-33 2 -16 23 -19 45 -6 45 5 0 16 7 25 15 9 9 17 11 21 5 3 -5 1 -10 -4 -10
-6 0 -11 -4 -11 -10 0 -5 9 -10 21 -10 12 0 17 4 13 11 -4 8 0 8 15 0 12 -7
26 -9 31 -6 5 3 19 1 30 -5 11 -6 20 -7 20 -2 0 5 -10 14 -22 20 -13 6 -17 11
-10 11 6 1 12 10 12 22 0 11 5 17 10 14 6 -3 10 -1 10 6 0 10 2 10 13 0 10
-10 8 -15 -7 -27 -11 -7 -17 -16 -14 -19 2 -3 13 4 23 15 14 16 15 23 6 34 -7
8 -10 20 -7 25 4 5 2 13 -4 16 -6 4 -10 3 -9 -2 3 -18 -2 -33 -11 -33 -5 0 -7
7 -4 15 4 8 1 15 -4 15 -6 0 -9 -9 -7 -20 2 -11 0 -20 -5 -20 -5 0 -7 -7 -4
-15 7 -17 3 -18 -21 -9 -14 6 -14 8 0 24 14 16 14 18 -2 31 -16 13 -17 12 -4
-3 17 -22 4 -24 -19 -3 -13 12 -23 13 -44 6 -14 -6 -26 -13 -26 -17 0 -3 6 -4
14 -1 8 3 16 -2 19 -13 4 -15 1 -17 -24 -10 -16 5 -29 7 -29 5 0 -2 -3 -12 -7
-22 -6 -16 -5 -16 10 -4 23 18 32 8 12 -13 -21 -20 -35 -21 -35 -1 0 8 -5 15
-11 15 -6 0 -9 6 -6 13 2 6 11 11 18 9 8 -2 11 0 7 4 -4 4 0 13 10 21 15 13
15 13 -5 4 -26 -13 -33 -14 -33 -2 0 9 38 24 57 22 16 -2 36 36 24 44 -13 7
-24 -12 -15 -27 4 -6 3 -8 -3 -5 -6 4 -25 0 -42 -9 -24 -12 -30 -20 -26 -35
11 -33 -3 -21 -45 41 -22 33 -43 60 -45 60 -6 0 24 -49 120 -195 64 -98 177
-274 242 -378 14 -22 28 -35 35 -31 7 5 8 3 3 -5 -4 -8 1 -24 12 -39 11 -15
36 -57 57 -94 43 -78 48 -83 76 -68 13 7 20 7 20 0 0 -5 -5 -10 -11 -10 -5 0
-7 -5 -4 -10 4 -6 1 -17 -5 -25 -15 -19 5 -49 27 -40 8 3 22 -2 31 -11 15 -15
16 -15 22 2 5 12 9 14 14 6 4 -7 4 -17 1 -22 -3 -6 -4 -10 -1 -10 3 0 10 10
17 21 8 17 8 20 -1 14 -12 -8 -12 -6 6 55 6 22 5 23 -9 12 -9 -8 -21 -11 -27
-7 -5 3 -10 1 -10 -6 0 -9 -4 -9 -15 1 -8 6 -20 8 -26 4 -8 -4 -9 -3 -5 5 4 6
16 9 26 6 10 -3 21 -2 24 3 10 16 51 6 51 -12 0 -9 7 -22 15 -27 12 -9 12 -10
-3 -5 -12 4 -17 2 -15 -6 3 -7 16 -13 31 -13 20 -1 24 2 15 12 -14 17 -2 31
13 16 13 -13 39 -6 39 9 0 5 -5 6 -11 2 -6 -3 -15 -1 -19 7 -7 10 -12 10 -23
1 -13 -12 -27 -7 -27 9 0 5 7 6 15 3 24 -9 18 6 -12 33 -16 14 -21 21 -10 17
21 -8 22 2 2 22 -13 14 -16 14 -21 1 -5 -15 -44 -12 -44 3 0 5 9 6 20 3 11 -3
20 0 20 6 0 6 -5 11 -11 11 -5 0 -7 5 -3 11 4 8 0 9 -15 4 -14 -4 -21 -2 -21
7 0 10 -3 9 -10 -2 -5 -8 -10 -10 -10 -5 0 6 4 17 10 25 8 12 10 12 15 -2 6
-14 10 -15 25 -6 10 6 16 19 13 27 -4 14 -4 14 6 1 10 -13 12 -13 20 0 5 8 7
18 5 22 -3 5 -2 8 3 6 4 -1 22 7 39 17 30 18 30 19 16 47 -18 36 -13 41 21 23
15 -8 29 -10 32 -4 4 5 -1 9 -10 9 -10 0 -13 5 -9 12 9 14 45 -27 43 -51 -1
-14 -2 -13 -6 1 -6 25 -17 22 -33 -7 -7 -14 -20 -25 -27 -25 -8 0 -11 -4 -8
-10 4 -6 -1 -7 -11 -3 -13 5 -15 2 -9 -15 4 -14 2 -22 -5 -22 -6 0 -8 5 -5 10
3 6 2 10 -4 10 -18 0 -22 -19 -5 -28 9 -5 14 -14 11 -19 -9 -14 -47 -24 -47
-12 0 5 7 9 15 9 8 0 15 5 15 10 0 13 -6 13 -30 0 -21 -11 -17 -40 6 -40 7 0
17 -6 21 -14 4 -8 17 -16 28 -19 19 -5 19 -5 -2 -12 -17 -6 -19 -10 -10 -20
13 -14 37 -2 37 19 0 6 14 19 32 29 24 14 34 15 42 6 8 -9 7 -10 -6 -6 -20 7
-25 -8 -5 -17 6 -3 3 -4 -8 -1 -19 5 -53 -30 -41 -42 8 -8 27 8 21 18 -8 12
12 12 35 -1 23 -13 58 16 41 33 -6 6 -11 16 -11 22 0 5 5 3 10 -5 8 -13 11
-12 24 5 19 25 19 30 3 47 -12 11 -10 16 10 31 19 15 23 15 23 3 0 -8 5 -16
12 -18 6 -2 13 -14 15 -26 2 -19 1 -21 -11 -10 -8 7 -13 17 -13 22 1 6 -6 12
-16 14 -15 3 -16 0 -6 -22 7 -14 20 -28 31 -31 20 -7 24 -20 8 -30 -6 -3 -10
0 -10 8 0 18 -27 30 -36 15 -4 -5 0 -14 7 -19 8 -4 14 -12 14 -17 0 -5 8 -17
18 -26 10 -10 15 -21 11 -25 -4 -3 -9 0 -11 7 -4 10 -8 10 -19 1 -11 -9 -14
-8 -14 2 0 10 -3 10 -12 1 -9 -9 -8 -16 5 -30 13 -12 20 -14 25 -5 5 8 11 3
19 -13 6 -14 7 -24 1 -24 -5 0 -6 -5 -3 -10 3 -6 -1 -13 -11 -17 -16 -6 -15
-7 2 -20 25 -18 36 -16 29 6 -3 11 1 25 9 34 8 8 12 18 8 22 -4 3 1 13 12 20
11 8 15 19 11 27 -7 11 -6 11 6 0 12 -11 11 -15 -5 -27 -10 -8 -15 -18 -12
-24 3 -5 -1 -17 -10 -26 -20 -20 -11 -33 11 -15 12 10 18 10 30 0 16 -14 21 0
5 16 -6 6 -5 15 1 24 9 13 10 12 5 -2 -3 -10 -1 -20 4 -23 9 -5 10 -45 1 -45
-2 0 -10 8 -17 18 -13 16 -16 15 -38 -10 -14 -16 -27 -24 -30 -19 -10 15 -45
19 -50 5 -3 -8 0 -11 10 -7 8 3 23 -2 33 -11 10 -9 21 -13 25 -9 4 4 4 -1 0
-12 -7 -19 -7 -19 12 -3 19 17 20 16 19 -6 0 -14 -4 -28 -8 -32 -4 -5 -5 -1
-2 8 5 11 0 15 -18 15 -20 0 -24 -4 -22 -23 1 -13 -2 -21 -7 -18 -5 3 -7 13
-4 21 5 11 1 14 -13 10 -11 -3 -22 0 -25 7 -3 7 -5 7 -5 -2 -1 -7 6 -15 14
-18 8 -4 12 -10 9 -15 -3 -5 1 -9 8 -9 9 0 9 -3 -2 -10 -11 -7 -17 -5 -22 8
-5 13 -7 14 -7 2 -1 -15 -24 -28 -99 -54 -66 -23 -116 -49 -129 -66 -11 -13
-16 -11 -35 14 -22 29 -137 211 -239 381 -27 44 -70 114 -96 155 -26 41 -72
116 -103 165 -31 50 -121 189 -200 310 -79 121 -178 276 -220 345 -42 69 -126
206 -187 305 -60 99 -188 304 -284 455 -275 433 -294 464 -291 478 2 8 -1 11
-6 8 -10 -6 -48 45 -110 146 -23 37 -35 65 -27 61 10 -3 15 2 15 17 0 14 -4
19 -12 14 -10 -5 -10 -4 0 7 10 11 15 10 26 -6 25 -35 48 -60 40 -45 -10 19
-85 132 -96 145 -12 13 2 -26 15 -43 7 -9 6 -11 -6 -7 -8 4 -18 1 -23 -6 -4
-8 -3 -10 4 -5 7 4 20 2 29 -4 17 -10 16 -10 -2 -8 -13 2 -19 -2 -17 -12 5
-21 2 -17 -72 93 -42 62 -63 103 -60 115 5 13 4 14 -4 3 -7 -10 -16 -3 -37 34
-23 39 -26 49 -14 56 12 8 12 10 0 18 -8 5 -11 17 -6 32 4 17 3 20 -3 10 -11
-15 -27 2 -17 19 3 6 4 10 1 10 -2 0 -11 3 -20 6 -11 4 -16 0 -16 -12 -1 -18
-2 -18 -16 1 -38 51 -114 205 -108 222 4 12 3 14 -3 6 -11 -15 -77 93 -66 109
3 6 2 8 -4 5 -17 -11 -90 97 -189 281 -68 126 -69 138 -6 57 l23 -30 -18 33
c-17 31 -92 126 -170 215 -18 21 -52 47 -75 59 -24 12 -45 24 -48 27 -3 4 -14
6 -25 6 -39 0 -37 -24 8 -93 48 -73 130 -212 212 -362 29 -52 66 -120 84 -151
43 -78 51 -135 52 -352 0 -192 -3 -206 -40 -227 -14 -7 -16 6 -13 123 2 72 1
129 -2 126 -3 -3 -7 -24 -8 -47 -1 -23 -5 -42 -10 -42 -4 0 -8 5 -8 11 0 5 -4
8 -9 4 -6 -3 -14 3 -20 12 -6 10 -11 13 -11 6 0 -6 9 -19 21 -27 14 -9 18 -19
13 -28 -6 -10 -4 -10 9 1 10 8 17 9 17 3 0 -12 -18 -25 -39 -29 -20 -3 -30
-22 -26 -54 2 -16 -2 -29 -9 -32 -10 -4 -12 3 -10 26 4 29 3 30 -10 12 -8 -11
-12 -23 -9 -27 8 -15 -29 -21 -39 -7 -8 11 -9 11 -5 -3 6 -18 -22 -48 -45 -48
-10 0 -15 -6 -12 -17 3 -10 -7 -31 -21 -47 -20 -24 -32 -29 -65 -28 -27 1 -42
-3 -48 -14 -7 -13 -13 -14 -31 -5 -11 7 -21 8 -21 4 -1 -4 -7 3 -15 17 -14 25
-14 25 -15 3 0 -13 5 -23 10 -23 6 0 10 -10 10 -22 0 -19 -2 -20 -10 -8 -7 10
-10 11 -10 2 0 -7 7 -15 16 -19 15 -6 15 -7 -1 -19 -16 -12 -16 -14 -1 -29 21
-21 20 -24 -6 -54 -20 -22 -18 -21 17 5 57 43 137 95 140 92 2 -2 -33 -30 -76
-63 -44 -33 -97 -78 -117 -100 l-37 -40 -9 60 c-6 34 -10 606 -10 1334 l-1
1275 235 3 c129 2 236 6 239 9 2 2 21 4 42 4 l37 0 6 -72z m1136 -199 c0 -5
-5 -7 -11 -3 -7 4 -6 -3 2 -17 7 -13 12 -28 11 -32 -1 -5 2 -6 8 -2 6 4 20 -5
31 -19 11 -15 24 -24 27 -22 4 2 31 6 60 10 70 8 76 10 83 20 4 4 9 3 13 -3 4
-6 -5 -13 -21 -17 -15 -3 -39 -10 -53 -15 -14 -4 -115 -25 -225 -45 -188 -33
-497 -107 -728 -173 -173 -49 -157 -50 -157 14 0 34 4 54 10 50 5 -3 7 -26 3
-53 -6 -41 -4 -45 9 -35 8 7 18 10 21 6 4 -3 7 -1 7 5 0 5 -6 13 -12 15 -10 4
-9 8 2 16 8 6 10 11 4 11 -11 0 -12 28 -2 46 10 16 -8 38 -23 29 -9 -5 -9 -2
2 9 38 40 364 128 653 175 269 44 286 46 286 30z m-1947 -66 c-4 -22 -2 -25 6
-13 8 11 9 8 7 -15 -2 -17 -9 -29 -16 -27 -6 1 -9 -2 -5 -8 3 -6 -7 -31 -24
-56 -39 -57 -40 -68 -1 -24 20 23 28 28 24 15 -7 -20 -6 -20 12 -1 14 13 15
20 7 23 -7 3 -13 9 -13 15 0 6 7 4 17 -3 15 -12 16 -12 10 3 -4 12 -2 15 8 12
10 -4 -1 -28 -39 -92 -29 -48 -68 -116 -86 -152 -40 -81 -69 -122 -80 -115 -4
3 -6 -4 -3 -15 3 -12 -1 -22 -11 -26 -9 -3 -14 -10 -11 -14 3 -5 -8 -36 -24
-70 -16 -34 -37 -96 -46 -138 -17 -75 -37 -122 -28 -65 l4 28 -16 -27 c-10
-19 -21 -26 -36 -23 -15 3 -19 0 -17 -13 3 -9 9 -16 16 -15 7 2 5 -10 -6 -31
-13 -27 -18 -30 -20 -15 -4 23 -22 26 -22 3 0 -8 -4 -13 -9 -9 -5 3 -13 -4
-16 -15 -6 -18 -9 -19 -23 -8 -14 11 -15 10 -9 -12 6 -23 5 -24 -8 -6 -8 10
-12 24 -8 30 4 7 3 8 -4 1 -16 -15 -50 -123 -58 -182 -4 -29 -11 -53 -15 -53
-10 0 18 128 55 260 34 118 185 444 247 531 25 35 65 96 88 134 37 61 148 215
155 215 1 0 0 -12 -2 -27z m2017 -13 c0 -5 -2 -10 -4 -10 -3 0 -8 5 -11 10 -3
6 -1 10 4 10 6 0 11 -4 11 -10z m2495 -152 c-3 -57 -39 -198 -50 -198 -3 0 -2
15 0 33 3 17 2 25 -1 17 -4 -8 -16 -26 -27 -40 l-19 -25 6 25 c4 17 0 13 -14
-12 -11 -21 -23 -38 -25 -38 -6 0 7 32 57 140 24 52 50 110 57 128 8 17 15 32
17 32 1 0 1 -28 -1 -62z m-510 31 c-5 -16 -4 -19 5 -14 27 16 -36 -78 -105
-157 -47 -55 -113 -115 -195 -176 -69 -51 -159 -124 -201 -162 -76 -68 -193
-161 -228 -180 -16 -8 -18 -7 -14 10 4 16 2 19 -13 13 -15 -6 -15 -3 4 17 22
24 30 46 12 35 -5 -3 -7 0 -4 9 3 8 12 17 20 20 8 3 14 13 14 23 0 10 5 25 11
33 9 13 10 12 5 -2 -3 -12 -1 -15 10 -11 7 3 14 12 14 20 0 8 5 11 11 8 5 -4
18 2 28 14 10 11 20 18 23 15 7 -7 78 42 73 50 -3 3 -2 4 1 1 10 -7 45 15 39
24 -2 5 3 8 13 7 9 0 16 5 14 12 -1 6 2 11 7 10 5 -2 20 8 33 22 13 14 46 43
73 65 27 22 60 52 73 67 14 15 30 25 36 21 6 -3 8 -3 4 1 -4 5 3 18 15 31 12
12 36 39 52 61 70 92 117 134 147 134 25 0 28 -3 23 -21z m-1780 -82 c49 -19
84 -61 69 -84 -5 -8 -38 -26 -74 -39 -61 -22 -114 -32 -480 -89 -240 -38 -609
-125 -716 -170 l-33 -13 6 71 c3 40 11 77 17 84 17 19 299 109 431 138 66 14
156 35 200 47 107 27 450 78 500 74 22 -2 58 -10 80 -19z m2115 -282 c-8 -20
-7 -23 8 -18 16 6 16 5 0 -14 -10 -11 -18 -22 -18 -26 0 -14 -58 -96 -64 -90
-3 3 -9 -8 -12 -26 -4 -17 -9 -29 -12 -26 -3 2 -12 -1 -20 -8 -13 -10 -14 -9
-7 3 6 12 6 13 -6 2 -12 -11 -12 -14 1 -23 13 -9 13 -10 -1 -6 -14 5 -44 -24
-117 -112 -29 -34 3 16 63 99 34 47 89 127 123 178 35 50 65 92 67 92 2 0 0
-11 -5 -25z m-2216 -117 c-12 -5 -27 -21 -35 -34 -14 -27 -29 -32 -29 -9 0 8
-5 15 -10 15 -7 0 -7 -6 0 -20 6 -11 18 -20 26 -20 8 0 12 -5 8 -11 -3 -6 -14
-9 -24 -6 -13 3 -17 0 -13 -9 3 -10 13 -12 27 -8 21 6 21 6 1 -10 -23 -17 -39
-21 -30 -6 3 6 2 10 -4 10 -6 0 -15 -9 -21 -20 -10 -19 -12 -19 -35 -4 -15 10
-25 12 -25 5 0 -6 5 -11 12 -11 6 0 9 -3 6 -6 -4 -3 -16 -1 -27 6 -16 8 -21 8
-21 -1 0 -8 -5 -7 -17 2 -11 10 -14 10 -9 2 4 -8 2 -13 -4 -13 -6 0 -8 -5 -5
-10 10 -16 -18 -7 -31 9 -15 19 -57 23 -50 4 4 -11 1 -11 -14 -3 -19 10 -24 6
-21 -13 1 -5 -3 -6 -9 -2 -7 4 -6 13 1 28 7 12 8 19 4 15 -4 -4 -14 0 -22 10
-12 15 -13 14 -2 -8 11 -23 11 -24 -4 -11 -9 7 -24 11 -32 7 -9 -3 -13 -2 -10
4 4 6 -13 10 -42 10 -27 0 -54 5 -61 12 -9 9 -15 8 -24 -5 -14 -19 -24 -22
-119 -32 -69 -7 -109 -1 -109 17 0 5 6 8 12 6 7 -3 18 1 25 8 18 18 16 29 -2
14 -9 -8 -15 -9 -15 -2 0 6 4 14 10 17 6 4 5 13 -2 25 -10 15 -10 22 0 32 13
13 74 14 447 8 110 -1 223 2 250 7 65 14 75 14 49 1z m0 -32 c-3 -8 -12 -17
-20 -20 -12 -4 -12 -2 -4 14 12 23 32 27 24 6z m-771 -17 c-8 -8 -13 -7 -18 2
-5 8 -4 10 3 5 7 -4 12 -2 12 5 0 7 3 9 7 6 4 -4 2 -12 -4 -18z m381 -95 c3
-8 2 -12 -4 -9 -6 3 -10 10 -10 16 0 14 7 11 14 -7z m121 -4 c3 -5 1 -10 -4
-10 -6 0 -11 5 -11 10 0 6 2 10 4 10 3 0 8 -4 11 -10z m2303 -105 c2 -21 1
-49 -3 -62 -3 -14 -79 -98 -168 -187 -140 -141 -179 -173 -287 -241 -212 -134
-316 -183 -610 -288 -52 -19 -156 -57 -230 -84 -74 -28 -162 -60 -195 -71
-134 -46 -442 -128 -451 -119 -3 2 27 14 65 27 50 16 68 26 64 36 -3 8 0 14 7
14 15 0 41 26 33 34 -3 3 1 14 10 24 10 10 14 23 10 28 -5 5 2 0 15 -10 23
-20 31 -10 10 13 -8 9 -8 11 -2 8 7 -4 15 0 18 9 4 9 13 14 22 10 8 -3 13 -2
10 3 -3 5 9 15 27 22 17 7 37 20 43 28 6 8 16 11 22 7 7 -4 12 -2 12 4 0 6 5
8 10 5 6 -3 16 -3 23 2 6 4 19 8 27 8 8 0 14 6 12 13 -1 8 3 12 10 10 7 -3 18
1 23 7 6 7 42 23 80 35 551 172 877 344 1190 627 63 57 119 102 123 99 4 -2
19 4 32 15 34 25 44 20 48 -26z m-4155 -32 c-4 -11 -3 -14 5 -9 11 7 47 -62
37 -72 -2 -2 0 -13 5 -22 10 -18 -26 -51 -276 -253 -160 -128 -442 -455 -541
-624 -15 -27 -31 -49 -35 -51 -4 -2 -8 -9 -8 -16 0 -7 -18 -41 -40 -75 -22
-34 -40 -65 -40 -70 0 -15 -83 -186 -91 -189 -5 -2 -9 -9 -9 -15 0 -18 -79
-220 -88 -226 -9 -7 -44 -114 -48 -147 -1 -12 -12 -59 -24 -105 -28 -108 -28
-108 -29 -147 -1 -18 -4 -31 -9 -29 -4 3 -8 -27 -10 -67 -7 -147 -19 -282 -22
-231 -2 41 -3 46 -10 25 -11 -35 -12 -120 -1 -120 5 0 12 8 14 18 3 9 5 -39 6
-108 3 -298 85 -670 202 -919 77 -165 235 -397 335 -490 105 -98 308 -237 456
-312 62 -32 226 -138 265 -172 12 -11 20 -24 17 -28 -7 -12 -90 -11 -182 1
-168 22 -521 250 -708 457 -174 192 -207 239 -302 428 -132 264 -195 483 -233
820 -18 157 -16 488 4 644 35 273 115 550 251 861 98 226 328 568 506 754 77
80 316 295 430 387 41 33 169 119 176 119 2 0 0 -7 -3 -17z m5584 -240 c-3
-10 -5 -4 -5 12 0 17 2 24 5 18 2 -7 2 -21 0 -30z m-594 3 c11 -6 14 -12 8
-20 -9 -11 -99 -190 -365 -726 -149 -298 -231 -459 -310 -605 -110 -200 -386
-747 -449 -885 -45 -102 -263 -527 -330 -647 -40 -72 -57 -83 -57 -38 0 31
-66 155 -141 267 -55 83 -69 114 -29 68 11 -13 21 -17 25 -10 3 5 2 10 -3 10
-6 0 -12 7 -16 15 -7 19 -1 19 19 -1 14 -15 18 -15 41 1 21 13 28 14 41 4 22
-19 43 -20 43 -2 0 9 -6 13 -14 10 -8 -3 -17 1 -20 9 -3 9 -10 12 -16 9 -5 -3
-10 1 -10 9 0 9 -5 16 -11 16 -8 0 -8 5 1 15 18 21 29 19 23 -5 -3 -12 0 -20
6 -20 7 0 9 5 5 12 -4 7 -3 8 4 4 20 -12 13 16 -8 39 -18 20 -19 23 -5 35 8 7
15 17 15 22 0 7 -5 7 -13 0 -10 -8 -13 -6 -13 7 0 16 4 17 23 8 l23 -10 -22
-25 -23 -24 25 6 c17 5 21 4 11 -2 -11 -8 -10 -14 3 -35 15 -22 15 -25 1 -30
-19 -8 -20 -27 -1 -27 16 0 46 -26 46 -41 0 -5 -6 -9 -14 -9 -8 0 -17 -8 -19
-18 -3 -11 -5 -9 -6 8 -1 18 -4 21 -10 11 -7 -10 -13 -11 -27 -2 -14 7 -15 10
-4 11 10 0 11 3 2 12 -8 8 -20 4 -46 -16 -29 -22 -34 -29 -23 -40 6 -8 16 -11
22 -8 5 3 4 7 -3 10 -18 6 -14 19 8 25 12 3 18 1 14 -5 -3 -5 4 -17 16 -25 17
-12 19 -17 9 -24 -11 -7 -11 -9 -1 -9 7 0 17 10 22 23 9 23 12 18 14 -22 1
-13 8 -26 16 -29 13 -5 13 -3 2 11 -12 14 -12 19 1 31 13 14 16 14 21 -1 4 -9
9 -13 13 -9 3 3 16 -2 27 -11 21 -18 21 -18 2 5 -11 12 -17 25 -14 28 3 3 15
-7 26 -21 l21 -26 14 28 c8 15 18 39 21 53 6 22 6 23 -5 6 -9 -15 -13 -16 -20
-5 -5 8 -3 17 4 22 7 5 4 6 -8 3 -16 -5 -21 -1 -21 14 0 24 6 25 32 5 10 -8
22 -15 26 -15 9 0 59 92 53 98 -2 3 -7 -3 -11 -12 -8 -21 -25 -10 -18 12 5 14
4 15 -5 2 -6 -9 -7 -18 -1 -24 6 -6 10 -14 10 -20 0 -6 -5 -5 -11 1 -6 6 -18
9 -25 6 -9 -3 -14 2 -14 17 0 11 -4 18 -10 15 -5 -3 -10 -1 -10 4 0 17 18 13
30 -6 10 -15 11 -15 6 -2 -2 9 3 25 12 35 9 11 18 28 20 39 1 11 -8 2 -20 -20
-11 -22 -23 -34 -26 -27 -2 7 3 24 12 37 9 14 14 25 11 25 -3 0 -8 0 -12 0 -5
0 -8 -3 -8 -7 -1 -18 -27 -53 -35 -48 -6 4 -3 16 5 29 8 12 13 25 10 28 -3 3
1 11 9 17 8 7 12 19 9 28 -4 11 -2 14 8 11 8 -3 13 -12 11 -22 -2 -9 2 -16 8
-16 6 0 9 4 6 9 -7 10 18 34 27 25 3 -3 3 -13 1 -22 -4 -12 -2 -11 7 2 9 15 9
21 1 24 -14 4 -16 32 -3 32 11 0 25 39 17 47 -3 3 -10 -6 -15 -20 -7 -18 -15
-25 -26 -21 -9 4 -17 -1 -21 -10 -5 -14 -9 -14 -25 5 -11 12 -19 18 -19 13 0
-6 5 -15 12 -22 10 -9 8 -16 -6 -30 -17 -16 -18 -16 -12 3 7 25 -15 70 -34 70
-8 0 -20 4 -26 9 -13 12 -5 58 9 49 6 -4 7 -1 2 7 -6 10 -14 6 -33 -16 -16
-18 -27 -24 -30 -16 -2 6 -8 9 -13 6 -6 -3 -2 -12 8 -20 17 -14 17 -15 -2 -12
-13 3 -20 11 -19 25 1 25 -11 21 -26 -7 -8 -16 -8 -18 5 -14 11 4 15 0 15 -16
0 -13 -4 -19 -11 -14 -6 3 -22 0 -36 -7 -16 -9 -26 -10 -31 -3 -9 14 -55 10
-60 -4 -6 -18 -32 -14 -32 4 0 8 4 13 9 10 11 -7 41 3 41 14 0 5 -10 6 -22 4
-18 -3 -17 -1 5 8 15 7 27 16 27 20 0 5 -9 4 -20 -2 -23 -12 -24 -11 -10 24
16 44 3 29 -24 -26 -23 -48 -73 -137 -82 -147 -2 -2 -7 5 -10 15 -4 10 -13 26
-20 34 -23 28 -25 64 -6 100 11 19 56 103 102 185 45 83 154 290 242 460 88
171 207 397 264 503 57 106 104 195 104 197 0 2 34 66 76 142 42 76 128 237
191 358 124 237 198 371 219 395 11 13 59 15 326 14 172 0 321 -4 331 -8z
m610 -153 c9 -225 -10 -526 -49 -733 -39 -215 -153 -580 -252 -805 -16 -38
-48 -110 -69 -160 -77 -177 -194 -379 -392 -679 -19 -28 -64 -87 -101 -131
-36 -44 -101 -125 -143 -180 -168 -220 -669 -687 -695 -649 -4 6 -21 30 -39
55 -17 25 -35 58 -38 72 -5 17 -12 24 -21 20 -32 -12 -11 20 33 50 267 184
479 390 753 727 66 82 252 352 318 460 120 201 259 513 345 775 106 323 146
534 177 920 10 130 19 163 42 149 4 -3 5 3 1 13 -3 10 -3 15 2 11 9 -8 40 20
32 29 -3 3 2 14 12 25 30 31 66 109 63 135 -2 12 1 23 6 23 5 0 11 -57 15
-127z m-5546 3 c-3 -7 1 -26 9 -41 16 -32 18 -55 4 -55 -6 0 -9 -13 -8 -28 1
-15 -1 -33 -6 -40 -4 -7 -3 -12 3 -12 6 0 -38 -44 -97 -99 -59 -54 -138 -131
-177 -172 -76 -81 -279 -339 -307 -391 -10 -17 -22 -34 -27 -37 -18 -11 -171
-320 -205 -413 -19 -51 -42 -110 -51 -131 -8 -21 -13 -42 -10 -47 4 -6 3 -10
-2 -10 -4 0 -9 -15 -10 -33 -1 -17 -8 -52 -17 -77 -31 -93 -48 -253 -53 -491
-5 -242 6 -370 52 -591 35 -167 196 -524 308 -685 18 -27 50 -76 71 -110 20
-34 52 -81 71 -103 56 -66 27 -106 -41 -55 -145 111 -302 302 -386 470 -96
191 -143 322 -187 525 -43 197 -55 311 -54 535 2 392 66 677 235 1050 166 365
485 763 804 1002 16 12 38 29 49 37 25 19 39 20 32 2z m4013 -23 c0 -11 -62
-118 -72 -124 -5 -3 -9 -9 -9 -13 3 -21 -3 -31 -44 -73 -25 -25 -42 -49 -39
-54 3 -5 -2 -9 -10 -9 -9 0 -16 -8 -16 -18 0 -27 -128 -145 -151 -139 -10 3
-17 1 -14 -3 3 -4 -9 -13 -25 -19 -17 -5 -30 -15 -30 -21 0 -6 -4 -8 -10 -5
-5 3 -10 1 -10 -4 0 -6 -7 -11 -16 -11 -9 0 -12 -5 -8 -12 5 -7 3 -8 -6 -3 -7
4 -16 2 -20 -6 -7 -10 -12 -10 -23 -1 -12 10 -15 9 -13 -5 1 -13 -7 -18 -29
-19 -17 0 -44 -8 -60 -17 -74 -42 -149 -66 -220 -71 -11 0 -22 -3 -25 -6 -10
-11 -62 -30 -80 -30 -10 0 -20 -3 -22 -7 -7 -18 -77 -62 -120 -76 -25 -9 -91
-25 -146 -36 -54 -11 -123 -29 -152 -40 -29 -11 -58 -17 -63 -14 -6 3 -7 1 -3
-5 6 -10 -231 -92 -267 -92 -19 0 -83 121 -74 143 8 21 52 39 174 72 290 79
583 172 758 240 331 130 444 194 748 422 81 60 97 70 97 56z m-1160 -37 c0 -2
-11 -6 -25 -8 -13 -3 -22 -1 -19 3 5 9 44 13 44 5z m-360 -30 c0 -3 -4 -8 -10
-11 -5 -3 -10 -1 -10 4 0 6 5 11 10 11 6 0 10 -2 10 -4z m-676 -32 c9 -24 2
-26 -12 -4 -7 11 -8 20 -3 20 5 0 12 -7 15 -16z m63 -57 c0 -8 -6 -14 -14 -14
-9 0 -10 4 -2 14 6 7 12 13 14 13 1 0 2 -6 2 -13z m-1883 -309 c14 -36 13 -98
-3 -141 -6 -15 -8 -27 -5 -27 4 0 -20 -28 -52 -62 -32 -35 -91 -108 -132 -163
-71 -96 -105 -137 -87 -106 6 10 4 12 -4 7 -7 -5 -10 -15 -7 -23 3 -8 2 -11
-4 -8 -10 6 -97 -134 -106 -172 -4 -13 -10 -23 -15 -23 -5 0 -9 -9 -9 -19 0
-27 -11 -52 -20 -46 -14 9 -111 -281 -144 -430 -25 -113 -46 -311 -46 -429 0
-130 33 -428 61 -546 21 -90 138 -397 197 -515 61 -125 137 -227 294 -395 171
-183 222 -228 383 -335 117 -78 165 -117 165 -135 0 -8 -35 -11 -119 -8 -106
3 -123 6 -148 25 -15 12 -80 58 -143 102 -146 101 -268 214 -329 305 -134 198
-324 544 -394 716 -29 72 -86 292 -113 440 -22 120 -25 522 -5 645 51 316 160
605 329 878 55 90 204 280 291 371 43 46 137 126 147 126 3 0 11 -15 18 -32z
m5192 -94 c-34 -239 -162 -659 -286 -939 -89 -202 -100 -223 -170 -340 -295
-489 -741 -990 -1007 -1131 -46 -24 -58 -28 -38 -12 16 12 37 30 47 40 9 9 20
13 24 10 4 -4 4 -1 0 6 -5 7 -14 11 -22 8 -11 -4 -12 -2 -4 14 5 10 7 25 4 33
-3 8 -1 18 5 21 6 4 8 12 5 19 -8 22 19 58 140 182 272 278 594 703 725 956
131 253 277 623 342 868 16 62 27 85 41 89 10 2 21 14 24 27 5 19 11 22 42 19
l37 -3 -28 17 c-15 9 -27 20 -27 25 0 4 5 5 12 1 7 -5 9 -2 6 7 -4 11 3 14 28
13 19 -1 37 3 41 9 3 6 1 7 -5 3 -7 -4 -10 2 -9 14 1 13 6 19 16 15 11 -4 12
-3 1 10 -7 8 -9 16 -4 16 5 1 16 2 24 3 8 0 15 11 15 23 0 12 4 25 8 29 4 4 7
17 7 29 0 21 10 39 17 31 2 -2 -3 -53 -11 -112z m-2887 45 c-22 -13 -31 -11
-17 5 7 8 17 12 22 9 4 -3 2 -9 -5 -14z m-1609 -44 c-14 -17 -45 -21 -35 -5 4
6 10 8 15 5 4 -3 11 2 14 11 4 9 9 14 13 11 3 -4 0 -13 -7 -22z m-30 -35 c0
-5 -4 -10 -10 -10 -5 0 -10 5 -10 10 0 6 5 10 10 10 6 0 10 -4 10 -10z m4440
-10 c0 -5 -5 -10 -11 -10 -5 0 -7 5 -4 10 3 6 8 10 11 10 2 0 4 -4 4 -10z
m-4525 -60 c3 -5 1 -10 -4 -10 -6 0 -11 5 -11 10 0 6 2 10 4 10 3 0 8 -4 11
-10z m115 -4 c0 -3 -33 -25 -145 -95 -45 -28 -42 -24 17 24 16 13 119 75 126
75 1 0 2 -2 2 -4z m-145 -16 c-3 -5 -11 -10 -16 -10 -6 0 -7 5 -4 10 3 6 11
10 16 10 6 0 7 -4 4 -10z m25 -14 c0 -3 -4 -8 -10 -11 -5 -3 -10 -1 -10 4 0 6
5 11 10 11 6 0 10 -2 10 -4z m419 -57 c22 -23 41 -45 41 -50 0 -4 7 -12 16
-17 11 -6 -9 -20 -83 -53 -95 -43 -210 -120 -246 -166 -10 -13 -25 -23 -33
-23 -23 0 -112 -67 -218 -164 -178 -164 -342 -386 -466 -630 -114 -226 -165
-388 -196 -626 -24 -186 -12 -335 52 -659 35 -179 40 -213 23 -172 -8 19 -12
21 -24 11 -15 -12 -21 -4 -16 23 1 5 -3 6 -8 3 -22 -14 -114 190 -151 335 -35
138 -41 221 -31 455 9 205 11 225 40 316 58 180 148 377 250 551 63 107 227
313 351 441 100 104 305 274 386 322 66 39 258 142 265 143 4 1 25 -18 48 -40z
m2580 -26 c-6 -16 -20 -37 -32 -48 -47 -43 -93 -129 -50 -94 15 13 15 12 4 -8
-7 -14 -17 -20 -26 -17 -9 4 -15 0 -15 -9 0 -9 -10 -23 -22 -33 l-23 -16 24 5
c14 4 20 2 15 -3 -21 -21 -478 -179 -653 -226 -86 -23 -152 -25 -150 -6 3 19
-3 22 -23 12 -22 -11 -22 -10 -4 4 11 9 18 17 15 19 -2 1 -13 9 -23 17 -13 10
-17 10 -12 3 4 -7 3 -13 -2 -13 -6 0 -13 8 -16 17 -6 15 -8 15 -16 3 -7 -11
-10 -12 -10 -2 0 7 -5 10 -10 7 -7 -4 -6 -13 1 -26 6 -12 8 -23 5 -27 -3 -3
-6 0 -6 7 0 7 -4 9 -10 6 -6 -4 -7 1 -3 11 5 14 3 16 -12 11 -17 -7 -45 7 -45
23 0 10 137 57 350 121 227 68 421 140 595 222 77 37 146 66 152 67 9 0 10 -7
2 -27z m-3149 -11 c21 -17 21 -19 6 -25 -11 -4 -15 -3 -10 4 4 6 0 15 -7 20
-21 13 -29 11 -29 -8 0 -9 -3 -14 -6 -10 -9 8 3 37 15 37 5 0 19 -8 31 -18z
m700 3 c7 -9 8 -15 2 -15 -5 0 -12 7 -16 15 -3 8 -4 15 -2 15 2 0 9 -7 16 -15z
m-794 -31 c3 -16 2 -26 -1 -23 -3 4 -8 19 -11 35 -3 16 -2 26 1 23 3 -4 8 -19
11 -35z m164 22 c0 -2 -7 -9 -15 -16 -13 -11 -14 -10 -9 4 5 14 24 23 24 12z
m-150 -81 c-7 -9 -15 -13 -17 -11 -6 6 20 36 26 30 2 -2 -2 -10 -9 -19z m619
-19 c-11 -11 -139 -73 -133 -65 6 10 114 68 128 69 5 0 7 -2 5 -4z m304 -125
c24 -42 21 -52 -5 -13 -14 23 -24 30 -31 23 -7 -7 -6 -15 2 -25 7 -8 10 -20 6
-25 -3 -7 0 -8 9 -5 11 4 16 0 16 -11 0 -9 -4 -13 -10 -10 -5 3 -3 -9 5 -28
16 -38 6 -57 -28 -57 -37 0 -264 -144 -375 -239 -37 -31 -100 -82 -140 -114
-89 -71 -245 -244 -316 -352 -128 -191 -233 -438 -267 -625 -9 -50 -14 -148
-13 -290 1 -182 4 -230 23 -315 12 -55 33 -163 46 -239 17 -95 34 -160 55
-204 16 -35 27 -68 24 -73 -3 -5 2 -6 10 -3 9 3 17 -3 21 -18 4 -13 16 -35 26
-50 23 -32 24 -38 2 -38 -38 0 -120 49 -165 98 -27 28 -48 55 -49 59 -1 16 -8
39 -21 71 -10 27 -10 34 0 41 11 6 9 9 -6 13 -13 4 -23 21 -31 54 -7 27 -18
55 -24 63 -10 12 -9 13 3 7 11 -5 10 -4 -1 6 -60 50 -90 621 -44 843 87 420
325 815 670 1115 78 68 235 183 327 240 79 49 237 130 253 130 6 0 18 -13 28
-29z m-503 -5 c0 -2 -8 -10 -17 -17 -16 -13 -17 -12 -4 4 13 16 21 21 21 13z
m3859 -237 c-7 -19 -16 -38 -20 -44 -5 -5 -2 12 7 38 9 27 18 46 20 44 2 -2
-1 -19 -7 -38z m-3359 -66 c30 -66 26 -74 -73 -138 -331 -213 -512 -402 -651
-683 -62 -124 -100 -239 -131 -401 -40 -204 -46 -303 -28 -466 8 -77 26 -178
40 -225 79 -271 107 -346 170 -463 105 -195 136 -231 270 -314 l94 -58 -31
-13 c-81 -33 -268 45 -382 160 -40 40 -46 56 -25 77 10 11 9 12 -2 6 -10 -6
-11 -2 -6 16 4 13 11 25 16 27 13 5 -18 50 -77 113 -35 38 -54 67 -58 90 -3
19 -7 50 -10 69 -16 106 -50 245 -80 334 -37 107 -66 267 -66 366 0 99 29 340
49 410 62 217 179 433 314 583 151 167 212 229 272 275 33 25 89 72 125 103
84 73 215 156 251 159 3 0 12 -12 19 -27z m287 -94 c4 -12 16 -41 29 -65 13
-24 20 -44 15 -44 -4 0 -13 -11 -19 -24 -7 -15 -49 -44 -118 -81 -231 -124
-361 -226 -490 -385 -182 -225 -272 -423 -326 -720 -18 -98 -23 -160 -22 -285
1 -184 14 -241 80 -341 50 -76 191 -217 274 -276 64 -45 266 -139 378 -177 71
-24 228 -56 342 -71 203 -25 572 -5 753 41 133 33 305 88 406 130 51 21 99 39
107 39 7 0 27 -20 43 -44 17 -25 38 -51 46 -59 13 -14 10 -18 -30 -42 -121
-70 -423 -164 -680 -212 -248 -45 -674 -42 -867 7 -150 38 -329 108 -449 176
-122 70 -184 122 -311 261 -32 35 -61 63 -66 63 -5 0 -35 48 -66 106 -75 136
-86 197 -89 479 -2 220 6 286 54 465 23 83 123 297 189 405 151 247 392 462
693 621 56 29 106 54 110 54 5 0 11 -10 14 -21z m3991 -1039 c1 -507 -5 -601
-49 -772 -52 -202 -142 -359 -286 -499 -127 -124 -250 -200 -418 -259 -176
-61 -156 -60 -973 -59 -411 1 -734 4 -718 6 26 4 65 37 66 56 0 10 40 49 40
40 1 -5 8 1 18 13 10 11 31 29 47 40 28 18 51 19 605 16 350 -1 612 2 669 8
107 12 282 75 377 135 77 50 196 173 261 272 65 99 76 125 115 267 l31 111 8
650 c9 649 15 805 30 755 6 -23 7 -23 8 -3 1 12 9 26 18 32 10 5 15 13 11 16
-4 4 4 18 18 32 23 23 29 36 24 58 -1 6 2 7 6 3 10 -10 37 23 60 74 l19 43 6
-295 c3 -162 7 -495 7 -740z m-5765 945 c-3 -9 -8 -14 -10 -11 -3 3 -2 9 2 15
9 16 15 13 8 -4z m-156 -27 c-3 -8 -6 -5 -6 6 -1 11 2 17 5 13 3 -3 4 -12 1
-19z m98 -48 c-22 -62 -17 -63 11 -1 34 75 41 58 8 -20 -14 -35 -37 -100 -50
-144 -34 -117 -76 -220 -100 -248 -12 -13 -26 -37 -32 -53 -10 -28 -10 -27
-11 16 0 25 4 74 9 110 5 36 14 113 19 172 10 102 29 203 37 195 3 -2 -2 -36
-11 -76 -8 -40 -14 -93 -13 -119 1 -46 1 -46 5 -7 5 70 24 145 36 146 7 1 16
1 20 0 5 -1 6 3 2 9 -3 6 -10 8 -14 6 -4 -3 -8 1 -8 9 0 19 12 19 30 0 13 -12
17 -12 34 3 11 9 23 26 26 36 4 10 10 17 12 14 3 -3 -2 -24 -10 -48z m-30 14
c-9 -9 -19 -13 -23 -10 -3 4 0 11 8 16 24 15 33 11 15 -6z m4569 -329 c-4 -8
-11 -15 -16 -15 -6 0 -5 6 2 15 7 8 14 15 16 15 2 0 1 -7 -2 -15z m-64 -94
c-5 -11 -15 -23 -21 -27 -6 -3 -3 5 6 20 20 30 30 35 15 7z m-768 -104 c-7 -8
-9 -16 -6 -19 9 -10 -36 -89 -46 -83 -6 4 -10 11 -10 16 0 6 4 7 10 4 6 -3 7
1 4 9 -3 9 -14 16 -24 16 -25 0 -35 19 -20 33 10 9 12 8 7 -5 -4 -12 -2 -15 8
-12 8 3 17 14 20 25 4 10 15 19 26 19 11 0 19 7 19 17 0 13 3 14 12 5 8 -8 8
-15 0 -25z m29 -4 c0 -5 2 -18 3 -31 4 -31 19 -44 52 -44 26 0 27 -1 9 -14
-10 -8 -20 -23 -22 -35 -4 -26 -22 -59 -23 -41 0 14 -30 17 -30 2 0 -5 5 -10
10 -10 6 0 10 -5 10 -11 0 -8 -5 -8 -15 1 -12 10 -15 10 -15 -1 0 -11 -2 -11
-10 1 -6 8 -7 27 -4 43 3 16 1 27 -5 27 -6 0 -11 7 -11 15 0 8 4 15 9 15 5 0
12 8 14 18 3 12 5 11 6 -6 0 -13 6 -20 11 -17 12 8 13 45 1 45 -5 0 -8 11 -8
25 0 22 16 37 18 18z m30 -5 c1 -7 1 -16 0 -20 0 -5 4 -8 9 -8 6 0 10 -4 10
-10 0 -11 -30 -14 -31 -2 0 4 -2 17 -5 30 -2 12 1 22 6 22 6 0 11 -6 11 -12z
m-201 -22 c0 -2 -7 -9 -15 -16 -13 -11 -14 -10 -9 4 5 14 24 23 24 12z m300
-17 c0 -5 -4 -9 -10 -9 -5 0 -10 7 -10 16 0 8 5 12 10 9 6 -3 10 -10 10 -16z
m-353 -6 c-14 -14 -19 -15 -29 -4 -11 10 -10 11 3 6 10 -4 20 -2 24 4 3 6 9
11 13 11 3 0 -1 -8 -11 -17z m83 13 c0 -2 -7 -7 -16 -10 -8 -3 -12 -2 -9 4 6
10 25 14 25 6z m-57 -41 c-3 -9 -8 -14 -10 -11 -3 3 -2 9 2 15 9 16 15 13 8
-4z m94 -3 c-6 -8 -10 -25 -9 -38 2 -13 -1 -24 -6 -24 -5 0 -8 14 -7 30 1 22
-2 29 -12 26 -7 -3 -13 0 -14 7 0 9 -2 9 -6 0 -2 -7 -9 -13 -15 -13 -7 0 -7 4
0 13 6 6 26 12 46 13 30 0 34 -2 23 -14z m693 14 c0 -11 -79 -90 -85 -85 -3 4
11 25 32 47 34 36 53 50 53 38z m1136 -624 c-4 -290 -9 -429 -17 -444 -6 -12
-30 -45 -53 -73 -22 -29 -45 -60 -51 -69 -7 -12 -8 155 -4 506 3 288 7 525 8
528 1 3 6 -2 12 -10 7 -11 12 -12 15 -3 3 7 11 10 18 7 8 -3 16 2 20 11 3 10
2 14 -5 9 -8 -4 -7 0 0 15 7 11 16 21 21 21 5 0 12 26 16 58 l8 57 9 -95 c5
-52 6 -285 3 -518z m-2002 582 c3 -8 2 -12 -4 -9 -6 3 -10 10 -10 16 0 14 7
11 14 -7z m111 -23 c-3 -6 -11 -11 -17 -11 -6 0 -6 6 2 15 14 17 26 13 15 -4z
m-2127 -206 c134 -171 174 -215 234 -258 93 -66 255 -154 344 -186 90 -33 297
-71 386 -71 42 0 82 -9 138 -31 44 -17 82 -35 86 -40 3 -5 10 -7 15 -4 5 3 6
-1 3 -9 -5 -12 1 -16 24 -16 17 0 34 -5 37 -11 4 -6 14 -8 23 -4 8 3 23 -3 34
-15 18 -19 18 -20 -4 -25 -150 -35 -323 -51 -413 -37 l-60 9 35 10 c19 6 29
12 22 12 -8 1 -28 7 -45 15 -18 7 -59 19 -92 26 -227 45 -276 66 -493 207
-153 100 -194 132 -185 146 3 7 3 9 -1 5 -5 -4 -18 3 -30 15 -12 12 -34 31
-49 42 -15 11 -27 24 -27 30 0 5 -24 35 -54 65 -66 68 -116 145 -116 179 0 48
10 69 31 64 10 -3 19 0 19 6 0 6 7 11 16 11 12 0 15 6 10 28 -3 15 6 3 22 -28
15 -30 55 -91 90 -135z m2122 165 c0 -5 -2 -10 -4 -10 -3 0 -8 5 -11 10 -3 6
-1 10 4 10 6 0 11 -4 11 -10z m28 -24 c-7 -8 -15 -12 -17 -11 -5 6 10 25 20
25 5 0 4 -6 -3 -14z m168 -11 l-26 -25 21 -21 c13 -13 18 -27 14 -37 -9 -21
-13 -40 -8 -29 8 13 28 7 39 -11 9 -14 9 -22 -1 -35 -11 -16 -13 -15 -29 2
-10 11 -24 17 -31 15 -7 -3 -15 2 -19 11 -3 9 -2 14 3 11 12 -8 38 35 33 56
-2 9 -9 15 -17 12 -7 -3 -16 -1 -19 5 -4 6 -14 8 -24 5 -14 -5 -14 -4 -2 4 8
6 18 8 22 6 4 -3 8 0 8 5 0 6 -5 11 -11 11 -5 0 -7 5 -3 11 5 8 8 8 13 0 5 -8
13 -5 26 9 10 11 22 20 27 20 5 0 -2 -11 -16 -25z m53 -33 c10 -20 14 -23 21
-12 12 19 24 6 13 -14 -8 -14 -11 -14 -31 0 -12 8 -20 19 -17 24 3 5 1 11 -5
15 -5 3 -10 2 -10 -4 0 -6 -7 -8 -15 -5 -11 5 -11 9 -2 19 16 17 32 9 46 -23z
m-229 1 c0 -2 -8 -3 -17 -2 -31 3 -39 -1 -23 -11 9 -6 10 -10 3 -10 -18 0 -27
21 -13 30 12 7 50 2 50 -7z m35 -22 c-6 -5 -25 10 -25 20 0 5 6 4 14 -3 8 -7
12 -15 11 -17z m-25 -13 c0 -6 -6 -5 -15 2 -8 7 -15 14 -15 16 0 2 7 1 15 -2
8 -4 15 -11 15 -16z m60 -64 c0 -8 -4 -12 -10 -9 -5 3 -10 10 -10 16 0 5 5 9
10 9 6 0 10 -7 10 -16z m1568 -692 c-3 -384 -4 -404 -22 -414 -10 -6 -36 -26
-57 -45 l-39 -35 -2 258 c-4 317 1 690 8 723 4 20 7 22 15 10 7 -11 15 -7 39
21 16 19 33 44 37 55 15 41 23 -179 21 -573z m-2187 496 c1 -7 1 -17 0 -22 -1
-4 4 -15 11 -24 11 -13 11 -14 -7 -3 -20 13 -31 61 -14 61 5 0 10 -6 10 -12z
m-1853 -171 c77 -118 134 -170 330 -301 171 -114 214 -135 336 -169 72 -20
104 -22 286 -21 217 1 326 11 554 50 175 30 206 35 184 28 -15 -5 -14 -10 12
-37 16 -18 30 -35 30 -39 0 -4 19 -1 43 7 37 13 40 13 23 0 -70 -54 -339 -121
-575 -145 -199 -20 -364 -13 -528 20 -81 17 -164 35 -183 41 -134 44 -406 229
-377 258 8 8 8 11 0 11 -13 0 -50 48 -55 70 -3 15 -31 51 -69 92 -58 60 -91
149 -66 175 4 3 0 17 -8 30 -9 13 -12 23 -7 23 5 0 36 -42 70 -93z m2032 89
c0 -3 -4 -8 -10 -11 -5 -3 -10 -1 -10 4 0 6 5 11 10 11 6 0 10 -2 10 -4z m-61
-42 c-6 -8 -17 -14 -23 -14 -6 0 -4 5 4 10 8 5 11 10 7 10 -5 0 -5 5 -2 10 4
6 11 8 16 4 6 -4 6 -11 -2 -20z m39 1 c-1 -14 -5 -25 -9 -25 -3 0 -5 -15 -3
-32 3 -23 1 -28 -5 -19 -8 12 -13 12 -33 -1 -22 -15 -24 -14 -25 4 -1 14 4 18
19 16 12 -2 23 3 26 10 3 9 -4 11 -22 8 -15 -3 -24 -1 -21 5 4 5 15 9 26 9 11
0 17 5 14 10 -3 6 1 10 9 10 10 0 13 6 10 15 -4 8 -1 15 5 15 6 0 10 -11 9
-25z m32 6 c0 -11 -4 -22 -9 -25 -5 -3 -8 6 -8 19 0 14 3 25 8 25 5 0 9 -9 9
-19z m-195 -10 c3 -5 1 -12 -4 -15 -5 -4 -11 -1 -13 6 -3 7 -7 5 -11 -6 -4
-10 -3 -15 3 -11 6 3 10 1 10 -4 0 -6 6 -10 12 -8 8 1 13 -11 15 -32 1 -19 7
-37 13 -41 7 -4 8 -10 3 -13 -5 -3 -24 19 -41 50 -25 43 -30 59 -21 69 13 16
25 18 34 5z m458 -41 c27 -40 21 -64 -10 -38 -10 8 -14 8 -10 1 4 -6 3 -14 -3
-18 -5 -3 -10 1 -10 9 0 8 5 18 10 21 6 3 10 11 10 17 0 7 -5 6 -14 -1 -10 -8
-16 -9 -21 -1 -3 5 -1 10 5 10 6 0 8 5 5 10 -5 9 1 30 9 30 2 0 15 -18 29 -40z
m-1976 -58 c118 -92 310 -203 384 -222 141 -36 222 -65 227 -82 2 -10 8 -18
13 -18 5 0 9 -4 9 -8 0 -5 -7 -9 -15 -9 -8 0 -12 4 -9 9 3 4 1 8 -5 8 -5 0
-13 -4 -16 -10 -8 -13 -131 -3 -210 16 -64 16 -129 50 -240 124 -70 47 -205
164 -215 185 -13 28 -39 57 -48 51 -5 -3 -16 2 -23 11 -12 15 -12 16 3 10 10
-3 17 -3 17 1 -6 36 5 30 128 -66z m1585 44 c-3 -5 -9 -1 -13 10 -12 31 -10
39 5 19 8 -11 12 -24 8 -29z m8 -29 c0 -4 -9 -3 -19 3 -14 7 -21 6 -24 -3 -3
-6 -5 -3 -4 9 1 17 4 19 24 10 13 -6 23 -15 23 -19z m60 -7 c0 -5 -4 -10 -9
-10 -6 0 -13 5 -16 10 -3 6 1 10 9 10 9 0 16 -4 16 -10z m80 -22 c0 -13 -23
-5 -28 10 -2 7 2 10 12 6 9 -3 16 -11 16 -16z m1746 -434 l7 -370 -60 -17
c-32 -9 -62 -17 -66 -17 -9 0 -9 726 -1 769 4 17 10 29 14 26 4 -2 24 12 46
33 l39 37 7 -45 c4 -25 10 -212 14 -416z m-1441 408 c-8 -8 -25 10 -19 20 4 6
9 5 15 -3 4 -7 6 -15 4 -17z m-400 -10 c6 -4 17 -16 25 -27 14 -19 14 -19 -5
-5 -11 8 -23 20 -27 25 -5 6 -12 4 -18 -5 -5 -8 -10 -10 -10 -4 0 21 17 29 35
16z m420 -33 c-5 -15 -3 -17 11 -12 12 4 15 3 10 -6 -5 -7 -17 -9 -29 -5 -18
5 -20 4 -9 -7 20 -21 14 -30 -8 -11 l-21 17 21 17 c27 22 26 31 -2 18 -22 -11
-22 -10 -4 4 23 19 39 11 31 -15z m-358 -1 c1 -11 8 -25 15 -29 7 -5 9 -9 3
-9 -17 0 -30 14 -29 30 4 37 9 41 11 8z m288 1 c-4 -13 -3 -19 2 -16 6 4 15
-4 21 -17 8 -18 7 -28 -3 -43 -8 -10 -15 -13 -15 -7 0 6 -7 11 -15 11 -8 0
-15 -5 -14 -11 5 -47 -8 -59 -29 -25 -12 19 -12 20 10 14 23 -8 23 -7 -2 13
l-25 21 33 31 c17 17 32 35 32 41 0 5 3 9 6 9 3 0 2 -10 -1 -21z m-380 -19
c-2 -11 0 -20 6 -20 5 0 9 -6 9 -14 0 -24 19 -29 46 -11 14 9 28 14 31 11 3
-3 -1 -8 -10 -12 -13 -5 -14 -10 -4 -31 9 -19 8 -26 -3 -33 -9 -5 -20 -5 -27
2 -11 9 -10 13 4 23 10 8 15 17 11 21 -4 4 -14 2 -21 -5 -12 -9 -18 -6 -32 16
-10 15 -18 33 -18 40 0 7 -4 13 -9 13 -5 0 -6 5 -3 10 11 17 24 11 20 -10z
m26 -3 c-10 -9 -11 -8 -5 6 3 10 9 15 12 12 3 -3 0 -11 -7 -18z m286 1 c-3 -8
-6 -5 -6 6 -1 11 2 17 5 13 3 -3 4 -12 1 -19z m-266 -11 c-6 -8 -7 -18 -3 -22
4 -5 1 -5 -6 -1 -10 6 -10 11 -1 22 6 8 14 14 16 14 3 0 0 -6 -6 -13z m436
-22 c-4 -8 -11 -15 -17 -15 -6 0 -6 7 2 20 14 22 24 19 15 -5z m-55 -59 c-2
-5 1 -6 9 -4 8 3 13 14 11 24 -2 16 -1 17 7 4 8 -11 11 -11 11 -2 0 7 5 10 10
7 6 -4 7 -12 3 -18 -4 -7 2 -5 12 3 16 13 18 13 13 0 -3 -8 -13 -15 -24 -16
-10 -1 -23 -2 -29 -4 -5 -2 -17 -4 -25 -4 -10 -1 -15 -12 -14 -34 0 -17 -3
-32 -8 -32 -4 0 -8 7 -8 15 0 21 -17 19 -30 -4 -14 -27 -13 -36 4 -22 9 8 16
8 20 2 9 -14 -11 -23 -34 -16 -15 5 -18 3 -14 -9 9 -22 -9 -20 -31 4 -18 19
-17 20 6 20 24 0 54 33 44 49 -3 5 5 7 17 4 21 -4 22 -3 6 10 -24 19 -23 30 2
17 18 -10 31 2 13 13 -5 2 -2 2 5 1 7 -2 12 6 13 19 0 21 1 21 8 2 5 -11 6
-24 3 -29z m-294 4 c-7 -11 -18 -20 -25 -20 -9 0 -7 6 4 20 10 11 21 20 25 20
5 0 3 -9 -4 -20z m-2164 -45 c34 -30 88 -79 121 -110 62 -59 274 -204 363
-249 62 -32 293 -90 446 -112 84 -13 148 -15 261 -11 224 9 388 33 584 86 103
28 112 28 106 11 -4 -13 2 -24 21 -37 14 -10 34 -26 45 -35 17 -16 22 -16 60
-3 79 28 64 15 -40 -35 -126 -61 -157 -70 -381 -114 -300 -59 -423 -67 -643
-41 -337 39 -539 110 -712 249 -103 82 -228 213 -221 232 3 7 1 13 -4 11 -5
-1 -25 23 -44 53 -30 45 -36 64 -36 107 0 29 3 53 6 53 4 0 34 -25 68 -55z
m2310 28 c3 -8 10 -11 16 -8 5 3 10 4 10 1 0 -3 -9 -10 -19 -16 -14 -7 -22 -7
-27 2 -4 7 -3 8 4 4 7 -4 12 -2 12 3 0 17 -18 13 -29 -6 -9 -15 -10 -14 -7 7
5 30 3 27 21 27 8 0 17 -7 19 -14z m54 -12 c12 -33 2 -54 -21 -45 -25 9 -21
23 6 17 17 -4 19 -2 7 6 -8 5 -11 13 -7 17 4 4 2 13 -4 21 -7 8 -8 13 -1 13 5
0 15 -13 20 -29z m-112 4 c-3 -8 1 -21 10 -29 9 -9 10 -17 4 -21 -5 -3 -10 -1
-10 4 0 6 -4 11 -10 11 -5 0 -10 -8 -10 -17 0 -15 -2 -16 -10 -3 -6 9 -5 17 3
22 6 4 8 10 5 14 -4 3 -1 12 5 20 16 18 20 17 13 -1z m-143 -20 c-3 -9 -8 -14
-10 -11 -3 3 -2 9 2 15 9 16 15 13 8 -4z m53 -11 c-3 -9 -6 -22 -6 -30 0 -22
-16 -17 -17 6 -1 11 3 20 8 20 6 0 7 5 4 10 -3 6 -1 10 5 10 7 0 9 -7 6 -16z
m37 -6 c9 -31 2 -33 -11 -3 -6 14 -8 25 -3 25 5 0 11 -10 14 -22z m368 -12
c-11 -28 3 -36 27 -16 9 7 9 7 2 -2 -16 -19 -12 -32 5 -18 9 7 18 11 20 8 3
-3 -1 -11 -10 -18 -12 -10 -18 -10 -31 1 -13 10 -17 10 -24 0 -4 -8 -12 -11
-18 -7 -6 3 -14 2 -17 -4 -4 -6 -15 -8 -26 -5 -11 4 -19 2 -19 -4 0 -6 -6 -11
-12 -11 -7 1 -3 9 10 19 12 11 22 23 22 28 0 6 7 10 15 10 8 0 15 -4 15 -9 0
-4 6 -8 13 -8 9 0 13 11 12 30 -1 16 2 27 7 24 4 -3 8 0 8 7 0 7 2 10 5 7 3
-3 1 -17 -4 -32z m1098 -357 l1 -227 -22 -6 c-13 -3 -39 -6 -59 -6 -34 0 -37
2 -43 38 -9 56 -6 474 4 497 5 11 9 16 9 12 1 -5 11 -1 23 7 12 9 30 16 40 16
9 0 20 10 25 23 12 34 20 -95 22 -354z m-1484 334 c2 -10 4 -21 4 -25 1 -4 8
-5 16 -2 11 5 13 2 8 -12 -6 -16 -5 -17 9 -4 9 8 13 19 10 24 -3 5 0 6 6 2 7
-4 17 -4 23 0 8 4 7 9 -2 15 -11 7 -10 9 4 9 9 0 17 -4 17 -10 0 -5 9 -10 20
-10 11 0 20 -4 20 -10 0 -5 -7 -6 -17 -3 -11 4 -14 3 -9 -5 4 -7 17 -12 29
-13 21 0 21 -1 2 -8 -15 -6 -24 -3 -36 15 l-15 24 -42 -40 c-23 -22 -35 -40
-27 -40 8 0 18 7 22 15 6 10 13 11 23 5 10 -7 11 -10 3 -10 -7 0 -13 -8 -12
-17 0 -10 3 -13 5 -7 3 7 14 10 24 7 17 -4 17 -7 5 -19 -18 -18 -9 -44 13 -37
9 3 4 -4 -13 -16 l-30 -21 -7 23 c-3 12 -6 18 -7 12 -1 -5 -14 13 -30 40 -25
44 -27 51 -12 57 12 5 10 7 -8 7 -20 1 -22 3 -11 16 11 13 10 14 -6 9 -16 -6
-17 -5 -6 7 6 7 12 22 12 33 0 23 10 16 15 -11z m95 -51 c0 -4 -9 -8 -20 -9
-11 -1 -18 2 -15 8 7 11 35 12 35 1z m289 -3 c-7 -4 -17 -5 -22 -2 -5 3 -13 0
-17 -7 -6 -10 -12 -10 -26 0 -16 9 -16 11 -2 6 10 -3 20 -1 22 3 3 5 17 9 32
9 17 0 22 -3 13 -9z m-102 -23 c-6 -16 19 -30 35 -20 6 4 5 10 -3 15 -9 6 -2
7 18 3 20 -4 39 -2 47 5 13 11 13 9 3 -12 -9 -19 -16 -23 -28 -16 -11 6 -21 4
-28 -5 -10 -12 -17 -12 -44 2 -17 8 -26 17 -19 20 7 2 10 8 6 13 -3 5 0 9 6 9
7 0 10 -6 7 -14z m-167 0 c0 -2 -7 -7 -16 -10 -8 -3 -12 -2 -9 4 6 10 25 14
25 6z m300 -16 c0 -5 -2 -10 -4 -10 -3 0 -8 5 -11 10 -3 6 -1 10 4 10 6 0 11
-4 11 -10z m-150 -20 c8 -5 11 -12 8 -16 -4 -3 -14 1 -23 10 -18 17 -9 21 15
6z m-125 -9 c-3 -5 0 -21 6 -35 15 -31 7 -42 -18 -26 -16 10 -16 11 0 6 21 -7
22 3 2 30 -14 21 -11 34 7 34 5 0 7 -4 3 -9z m380 -11 c3 -5 1 -10 -4 -10 -6
0 -11 5 -11 10 0 6 2 10 4 10 3 0 8 -4 11 -10z m-140 -20 c3 -5 1 -10 -4 -10
-6 0 -11 5 -11 10 0 6 2 10 4 10 3 0 8 -4 11 -10z m-190 -28 c-3 -3 -11 0 -18
7 -9 10 -8 11 6 5 10 -3 15 -9 12 -12z m1051 -369 c-2 -3 -32 -7 -65 -10 l-61
-6 1 144 c1 121 13 283 18 227 1 -21 13 -22 44 -6 56 29 51 40 60 -159 4 -102
6 -187 3 -190z m-726 343 c0 -3 -4 -8 -10 -11 -5 -3 -10 -1 -10 4 0 6 5 11 10
11 6 0 10 -2 10 -4z m-25 -26 c3 -5 1 -10 -4 -10 -6 0 -11 5 -11 10 0 6 2 10
4 10 3 0 8 -4 11 -10z m-361 -25 c-24 -18 -31 -19 -31 -2 0 7 12 14 26 15 24
2 24 2 5 -13z m56 5 c0 -5 -7 -10 -15 -10 -8 0 -15 -5 -15 -11 0 -5 -5 -7 -11
-4 -6 5 -4 12 8 21 22 16 33 18 33 4z m464 -75 c15 -23 15 -27 1 -42 -15 -14
-15 -13 -9 12 4 17 3 26 -2 22 -6 -3 -10 3 -10 14 0 24 0 24 20 -6z m-119 -4
c-3 -6 -11 -11 -16 -11 -5 0 -4 6 3 14 14 16 24 13 13 -3z m479 -81 c3 -19 6
-61 6 -92 l0 -58 -38 0 c-53 0 -62 13 -62 91 0 58 3 69 23 82 38 26 64 18 71
-23z"/>
<path d="M5130 5775 c-11 -13 -11 -18 0 -28 10 -9 11 -9 5 2 -4 8 -2 17 6 22
7 4 11 11 8 14 -4 3 -12 -2 -19 -10z"/>
<path d="M5089 5703 c-13 -16 -12 -17 4 -4 16 13 21 21 13 21 -2 0 -10 -8 -17
-17z"/>
<path d="M3250 7030 c-9 -6 -10 -10 -3 -10 6 0 15 5 18 10 8 12 4 12 -15 0z"/>
<path d="M3786 6138 c3 -4 9 -8 15 -8 5 0 9 4 9 8 0 5 -7 9 -15 9 -8 0 -12 -4
-9 -9z"/>
<path d="M3777 4349 c7 -7 15 -10 18 -7 3 3 -2 9 -12 12 -14 6 -15 5 -6 -5z"/>
<path d="M3820 4239 c0 -5 5 -7 10 -4 6 3 10 8 10 11 0 2 -4 4 -10 4 -5 0 -10
-5 -10 -11z"/>
<path d="M550 3775 c-7 -9 -8 -15 -2 -15 5 0 12 7 16 15 3 8 4 15 2 15 -2 0
-9 -7 -16 -15z"/>
<path d="M2740 4445 c17 -25 33 -45 36 -45 3 0 -9 20 -26 45 -17 25 -33 45
-36 45 -3 0 9 -20 26 -45z"/>
<path d="M2790 4371 c0 -6 5 -13 10 -16 6 -4 8 -11 5 -16 -4 -5 -1 -9 4 -9 6
0 11 -7 11 -16 0 -8 -4 -13 -8 -10 -5 3 -4 -10 2 -29 6 -19 15 -35 19 -35 5 0
5 5 2 10 -3 6 -1 10 5 10 6 0 8 6 5 13 -4 6 0 4 8 -5 31 -39 24 -14 -14 47
-41 64 -49 74 -49 56z"/>
<path d="M2920 4151 c0 -5 7 -15 17 -22 15 -13 15 -12 4 9 -12 23 -21 28 -21
13z"/>
<path d="M2470 4090 c0 -5 5 -10 11 -10 5 0 7 5 4 10 -3 6 -8 10 -11 10 -2 0
-4 -4 -4 -10z"/>
<path d="M2469 4034 c6 -3 7 -12 4 -20 -3 -8 -1 -14 5 -14 14 0 8 33 -7 36 -6
1 -7 0 -2 -2z"/>
<path d="M2440 4020 c0 -5 5 -10 11 -10 5 0 7 5 4 10 -3 6 -8 10 -11 10 -2 0
-4 -4 -4 -10z"/>
<path d="M2470 3980 c0 -5 5 -10 11 -10 5 0 7 5 4 10 -3 6 -8 10 -11 10 -2 0
-4 -4 -4 -10z"/>
<path d="M2499 3951 c10 -7 10 -10 1 -16 -7 -4 -16 -1 -21 6 -7 11 -9 10 -9
-3 0 -22 35 -24 43 -4 6 16 -1 26 -17 26 -6 0 -5 -4 3 -9z"/>
<path d="M3090 3890 c12 -16 24 -30 26 -30 3 0 -4 14 -16 30 -12 17 -24 30
-26 30 -3 0 4 -13 16 -30z"/>
<path d="M2164 3899 c-3 -6 -1 -16 6 -22 10 -9 11 -9 5 2 -4 8 -2 17 6 22 9 6
10 9 2 9 -6 0 -15 -5 -19 -11z"/>
<path d="M2260 3901 c0 -5 5 -13 10 -16 6 -3 10 -2 10 4 0 5 -4 13 -10 16 -5
3 -10 2 -10 -4z"/>
<path d="M2440 3900 c0 -5 -8 -7 -17 -3 -23 8 -15 -1 14 -16 20 -10 22 -9 16
6 -5 13 -3 15 11 10 10 -4 15 -3 11 3 -8 13 -35 13 -35 0z"/>
<path d="M3050 3874 c0 -14 4 -23 10 -19 6 3 10 15 10 26 0 10 -4 19 -10 19
-5 0 -10 -12 -10 -26z"/>
<path d="M2250 3870 c0 -5 5 -10 11 -10 5 0 7 5 4 10 -3 6 -8 10 -11 10 -2 0
-4 -4 -4 -10z"/>
<path d="M2298 3873 c7 -3 16 -2 19 1 4 3 -2 6 -13 5 -11 0 -14 -3 -6 -6z"/>
<path d="M2390 3869 c0 -7 3 -9 6 -6 4 3 15 2 25 -4 13 -6 19 -6 19 1 0 5 -4
10 -9 10 -5 0 -16 3 -25 6 -10 4 -16 1 -16 -7z"/>
<path d="M2275 3849 c-4 -6 -4 -13 -1 -16 3 -4 6 -1 6 6 0 7 5 9 12 5 7 -4 8
-3 4 4 -9 15 -13 15 -21 1z"/>
<path d="M2140 3823 c0 -25 11 -29 41 -13 13 8 19 7 19 0 0 -12 -41 -30 -52
-23 -5 2 -8 -13 -7 -34 l1 -38 9 33 c7 22 16 32 30 32 13 0 18 -4 13 -12 -4
-7 -3 -10 1 -5 5 4 10 26 11 49 1 23 -1 37 -4 31 -9 -13 -52 -36 -52 -27 0 4
8 13 18 20 16 12 15 13 -5 11 -17 -1 -23 -8 -23 -24z"/>
<path d="M2230 3840 c0 -5 5 -10 10 -10 6 0 10 5 10 10 0 6 -4 10 -10 10 -5 0
-10 -4 -10 -10z"/>
<path d="M2326 3838 c3 -4 15 -8 26 -8 12 0 18 3 14 7 -10 10 -46 11 -40 1z"/>
<path d="M2292 3804 c-7 -8 -8 -14 -3 -14 10 0 25 19 20 25 -2 1 -10 -3 -17
-11z"/>
<path d="M2327 3813 c-8 -12 12 -22 31 -16 6 3 12 9 12 15 0 7 -5 6 -14 -1
-11 -9 -15 -9 -18 1 -3 8 -6 9 -11 1z"/>
<path d="M2278 3768 c0 -7 -2 -17 -2 -23 -1 -5 -6 -17 -10 -25 -8 -13 2 -6 44
29 3 2 -3 1 -13 -2 -15 -6 -17 -3 -12 13 4 11 4 20 1 20 -3 0 -7 -6 -8 -12z"/>
<path d="M2167 3763 c-4 -3 -7 -11 -7 -17 0 -6 5 -5 12 2 6 6 9 14 7 17 -3 3
-9 2 -12 -2z"/>
<path d="M2330 3745 c-11 -13 -10 -14 4 -9 9 3 16 10 16 15 0 13 -6 11 -20 -6z"/>
<path d="M2230 3724 c-15 -27 -46 -28 -44 -1 2 14 -1 15 -12 6 -8 -6 -14 -19
-14 -28 0 -11 3 -12 8 -4 5 8 11 8 24 -1 10 -7 17 -15 15 -17 -1 -2 4 3 11 11
7 8 19 23 27 32 8 10 11 20 6 22 -4 3 -14 -6 -21 -20z"/>
<path d="M2292 3718 c-7 -7 -12 -16 -12 -21 0 -5 7 -1 16 8 9 9 14 18 12 20
-2 3 -10 -1 -16 -7z"/>
<path d="M3155 3710 c3 -5 8 -10 11 -10 2 0 4 5 4 10 0 6 -5 10 -11 10 -5 0
-7 -4 -4 -10z"/>
<path d="M3180 3672 c6 -13 14 -21 18 -18 3 4 -2 14 -12 24 -18 16 -18 16 -6
-6z"/>
<path d="M4020 2470 c6 -11 13 -20 16 -20 2 0 0 9 -6 20 -6 11 -13 20 -16 20
-2 0 0 -9 6 -20z"/>
<path d="M4046 2428 c37 -60 96 -148 100 -148 7 0 -28 59 -69 118 -28 39 -48
59 -31 30z"/>
<path d="M4223 2346 c0 -11 1 -15 4 -8 3 6 9 10 14 6 5 -3 9 -1 9 4 0 21 -26
19 -27 -2z"/>
<path d="M4159 2252 c6 -12 16 -24 22 -28 8 -4 8 -1 0 14 -6 12 -16 24 -22 28
-8 4 -8 1 0 -14z"/>
<path d="M4283 2263 c-7 -3 -13 -12 -12 -21 0 -10 3 -12 5 -5 3 7 12 9 20 6 7
-3 12 -9 9 -13 -3 -5 -1 -11 5 -15 5 -3 10 0 10 7 -1 20 -24 45 -37 41z"/>
<path d="M4310 2266 c0 -2 8 -10 18 -17 15 -13 16 -12 3 4 -13 16 -21 21 -21
13z"/>
<path d="M4462 2261 c-11 -7 -11 -9 0 -14 9 -3 15 1 15 9 0 8 -1 14 -1 14 -1
0 -7 -4 -14 -9z"/>
<path d="M4500 2241 c0 -6 5 -11 10 -11 6 0 10 -5 10 -11 0 -5 -5 -7 -12 -3
-7 4 -8 3 -4 -5 6 -9 11 -9 22 0 8 6 13 12 12 13 -2 1 -11 8 -20 15 -12 9 -18
10 -18 2z"/>
<path d="M4683 2225 c0 -8 6 -16 14 -19 11 -4 11 -1 3 14 -13 24 -17 25 -17 5z"/>
<path d="M4380 2205 c0 -8 4 -15 10 -15 5 0 7 7 4 15 -4 8 -8 15 -10 15 -2 0
-4 -7 -4 -15z"/>
<path d="M4550 2209 c0 -5 5 -7 10 -4 6 3 10 8 10 11 0 2 -4 4 -10 4 -5 0 -10
-5 -10 -11z"/>
<path d="M4473 2195 c0 -8 4 -12 9 -9 5 3 6 10 3 15 -9 13 -12 11 -12 -6z"/>
<path d="M4275 2190 c-3 -5 -1 -10 4 -10 6 0 11 5 11 10 0 6 -2 10 -4 10 -3 0
-8 -4 -11 -10z"/>
<path d="M4306 2191 c-4 -7 -5 -15 -2 -18 9 -9 19 4 14 18 -4 11 -6 11 -12 0z"/>
<path d="M4251 2105 c49 -86 116 -185 125 -185 3 0 -7 17 -20 37 -19 28 -23
39 -13 46 8 6 7 7 -4 4 -24 -8 -44 30 -27 51 12 15 11 16 -4 4 -15 -12 -19
-10 -32 17 -22 41 -20 50 9 57 14 3 22 10 19 15 -3 5 -17 1 -31 -8 -19 -13
-28 -14 -31 -5 -2 6 -12 22 -23 34 -10 13 4 -17 32 -67z"/>
<path d="M4336 2175 c-7 -18 3 -45 16 -45 5 0 6 -4 3 -10 -3 -5 -2 -10 4 -10
11 0 25 39 17 47 -3 4 -6 -2 -6 -12 0 -14 -3 -15 -14 -5 -16 13 -10 44 7 33 6
-3 7 -1 3 5 -10 16 -23 15 -30 -3z"/>
<path d="M4545 2170 c10 -11 20 -20 22 -20 2 0 -1 9 -7 20 -6 11 -16 20 -22
20 -6 0 -3 -9 7 -20z"/>
<path d="M4710 2180 c0 -5 5 -10 11 -10 5 0 7 5 4 10 -3 6 -8 10 -11 10 -2 0
-4 -4 -4 -10z"/>
<path d="M4443 2165 c0 -8 4 -12 9 -9 5 3 6 10 3 15 -9 13 -12 11 -12 -6z"/>
<path d="M4471 2154 c-7 -8 -10 -18 -6 -22 4 -4 10 -1 12 6 3 6 9 10 14 7 5
-4 6 1 3 9 -7 19 -6 19 -23 0z"/>
<path d="M4543 2125 c0 -14 3 -28 7 -30 5 -3 7 6 5 20 -3 35 -12 42 -12 10z"/>
<path d="M4625 2142 c-12 -8 -13 -28 -2 -36 4 -3 5 -3 2 0 -2 4 0 15 6 25 11
21 9 23 -6 11z"/>
<path d="M4312 2131 c-10 -6 -10 -10 3 -21 8 -7 18 -10 22 -6 3 3 1 6 -6 6 -8
0 -11 7 -7 15 6 17 6 18 -12 6z"/>
<path d="M4506 2132 c-3 -5 1 -9 9 -9 8 0 12 4 9 9 -3 4 -7 8 -9 8 -2 0 -6 -4
-9 -8z"/>
<path d="M4580 2130 c0 -5 5 -10 11 -10 5 0 7 5 4 10 -3 6 -8 10 -11 10 -2 0
-4 -4 -4 -10z"/>
<path d="M4435 2110 c-3 -11 -12 -20 -19 -20 -13 0 -14 -4 -19 -50 -1 -14 -5
-30 -10 -36 -10 -16 20 -26 43 -14 15 8 17 6 13 -10 -6 -23 3 -26 22 -6 12 12
12 15 0 20 -24 9 -17 28 8 22 12 -3 16 -3 10 0 -18 8 -16 27 2 20 8 -3 15 -1
15 4 0 6 -4 10 -10 10 -5 0 -10 4 -10 10 0 5 7 7 15 4 8 -4 15 -2 15 4 0 6 -8
9 -17 7 -10 -2 -22 -4 -26 -4 -5 -1 -5 -5 -2 -11 3 -5 1 -10 -5 -10 -6 0 -9
-3 -7 -7 3 -5 -2 -15 -11 -23 -17 -15 -17 -17 4 35 3 8 1 15 -6 15 -6 0 -9 -3
-6 -8 2 -4 -2 -15 -9 -25 -8 -12 -15 -14 -20 -8 -6 10 28 68 48 82 5 4 5 9 -1
13 -6 3 -13 -3 -17 -14z m-15 -110 c0 -5 -4 -10 -10 -10 -5 0 -10 5 -10 10 0
6 5 10 10 10 6 0 10 -4 10 -10z"/>
<path d="M4390 2112 c0 -6 -11 -14 -25 -18 -31 -8 -33 -21 -2 -20 20 1 44 32
32 44 -3 3 -5 0 -5 -6z"/>
<path d="M4467 2103 c-3 -5 6 -9 20 -10 19 -1 22 1 12 8 -17 11 -26 11 -32 2z"/>
<path d="M4686 2083 c-6 -14 -5 -15 5 -6 7 7 10 15 7 18 -3 3 -9 -2 -12 -12z"/>
<path d="M4797 2050 c25 -45 71 -109 60 -85 -8 21 -80 135 -84 135 -2 0 8 -23
24 -50z"/>
<path d="M4520 2070 c0 -5 5 -10 11 -10 5 0 7 5 4 10 -3 6 -8 10 -11 10 -2 0
-4 -4 -4 -10z"/>
<path d="M4356 2062 c-3 -5 1 -17 8 -27 12 -17 13 -17 11 3 -2 26 -11 37 -19
24z"/>
<path d="M4550 2056 c-5 -5 -10 -15 -10 -20 0 -6 5 -3 11 7 6 9 14 15 19 12 5
-3 11 -2 14 3 7 12 -21 11 -34 -2z"/>
<path d="M4320 2040 c0 -5 5 -10 11 -10 5 0 7 5 4 10 -3 6 -8 10 -11 10 -2 0
-4 -4 -4 -10z"/>
<path d="M4560 2028 c0 -4 4 -8 9 -8 6 0 12 4 15 8 3 5 -1 9 -9 9 -8 0 -15 -4
-15 -9z"/>
<path d="M4630 2031 c0 -10 19 -25 25 -20 1 2 -3 10 -11 17 -8 7 -14 8 -14 3z"/>
<path d="M4770 2026 c0 -2 8 -10 18 -17 15 -13 16 -12 3 4 -13 16 -21 21 -21
13z"/>
<path d="M4525 2011 c4 -8 2 -17 -6 -22 -9 -6 -10 -9 -2 -9 19 0 27 21 13 33
-10 9 -11 9 -5 -2z"/>
<path d="M4714 2012 c3 -5 1 -12 -6 -14 -8 -3 -9 -6 -1 -11 6 -4 13 0 17 8 3
8 0 17 -6 21 -6 4 -8 3 -4 -4z"/>
<path d="M4556 1984 c-4 -9 -4 -19 -1 -22 2 -3 7 3 11 12 4 9 4 19 1 22 -2 3
-7 -3 -11 -12z"/>
<path d="M4587 1974 c-4 -4 -7 -12 -7 -18 0 -6 5 -4 10 4 8 13 10 12 10 -2 0
-12 -8 -18 -20 -18 -21 0 -52 -26 -80 -65 l-15 -20 25 20 c14 11 32 28 41 38
9 9 24 17 33 17 9 0 19 7 23 16 6 17 -9 38 -20 28z"/>
<path d="M4370 1959 c0 -5 5 -7 10 -4 6 3 10 8 10 11 0 2 -4 4 -10 4 -5 0 -10
-5 -10 -11z"/>
<path d="M4404 1954 c-10 -8 -13 -12 -5 -8 7 3 16 2 20 -4 4 -7 12 -8 21 -2
13 8 12 10 -3 10 -10 0 -15 5 -12 10 9 14 2 12 -21 -6z"/>
<path d="M4486 1961 c-3 -4 8 -8 23 -7 16 1 27 4 24 9 -6 10 -41 9 -47 -2z"/>
<path d="M4658 1952 c-20 -13 -25 -21 -17 -29 8 -8 8 -18 -1 -34 -11 -23 -11
-23 5 -4 9 11 14 28 11 38 -2 10 1 17 9 17 7 0 15 7 19 15 7 19 7 19 -26 -3z"/>
<path d="M4460 1940 c0 -5 5 -10 11 -10 5 0 7 5 4 10 -3 6 -8 10 -11 10 -2 0
-4 -4 -4 -10z"/>
<path d="M4500 1932 c0 -5 -9 -18 -21 -31 -12 -12 -18 -25 -14 -29 4 -4 10 -2
12 5 2 6 13 21 24 34 22 25 23 29 9 29 -5 0 -10 -4 -10 -8z"/>
<path d="M4876 1927 c3 -10 9 -15 12 -12 3 3 0 11 -7 18 -10 9 -11 8 -5 -6z"/>
<path d="M4442 1920 c2 -8 -2 -14 -9 -13 -7 2 -10 -4 -7 -12 5 -13 8 -12 21 1
12 12 13 18 4 27 -10 9 -12 9 -9 -3z"/>
<path d="M4586 1895 c15 -10 15 -13 0 -27 -20 -21 -21 -29 -1 -22 8 4 15 13
15 21 0 8 5 11 12 7 7 -5 8 -3 3 6 -4 7 -2 16 6 21 8 5 2 7 -19 7 -27 -1 -29
-3 -16 -13z"/>
<path d="M4810 1890 c-9 -6 -10 -10 -3 -10 6 0 15 5 18 10 8 12 4 12 -15 0z"/>
<path d="M4850 1890 c-9 -6 -10 -10 -3 -10 6 0 15 5 18 10 8 12 4 12 -15 0z"/>
<path d="M4778 1872 c9 -10 19 -17 21 -16 6 5 -20 34 -30 34 -5 0 -1 -8 9 -18z"/>
<path d="M4660 1860 c0 -5 5 -10 10 -10 6 0 10 5 10 10 0 6 -4 10 -10 10 -5 0
-10 -4 -10 -10z"/>
<path d="M4746 1850 c16 -9 31 -15 34 -12 3 2 -1 7 -8 9 -6 3 -10 8 -8 11 2 4
-7 8 -21 9 l-25 1 28 -18z"/>
<path d="M4455 1850 c-3 -5 -1 -10 4 -10 6 0 11 5 11 10 0 6 -2 10 -4 10 -3 0
-8 -4 -11 -10z"/>
<path d="M4892 1833 c-16 -16 -9 -43 10 -42 10 0 10 2 1 6 -10 3 -10 10 -2 25
13 25 8 31 -9 11z"/>
<path d="M4780 1780 c0 -5 5 -10 10 -10 6 0 10 5 10 10 0 6 -4 10 -10 10 -5 0
-10 -4 -10 -10z"/>
<path d="M4806 1775 c-10 -27 23 -61 61 -61 18 0 29 2 25 6 -4 3 -12 14 -18
25 -6 11 -20 22 -30 24 -10 2 -22 8 -25 13 -3 5 -9 2 -13 -7z m40 -18 c8 3 14
-1 14 -11 0 -22 -14 -20 -36 7 -10 12 -12 17 -5 10 7 -6 20 -9 27 -6z"/>
<path d="M4535 1729 c-10 -15 3 -25 16 -12 7 7 7 13 1 17 -6 3 -14 1 -17 -5z"/>
<path d="M4961 1713 c-6 -11 -11 -13 -11 -5 0 7 -5 10 -11 6 -7 -4 -7 -10 -1
-16 11 -11 52 6 52 22 0 16 -18 11 -29 -7z"/>
<path d="M4810 1620 c0 -5 7 -10 15 -10 8 0 15 5 15 10 0 6 -7 10 -15 10 -8 0
-15 -4 -15 -10z"/>
<path d="M4870 1569 c0 -5 5 -7 10 -4 6 3 10 8 10 11 0 2 -4 4 -10 4 -5 0 -10
-5 -10 -11z"/>
<path d="M4965 1530 c-4 -6 -14 -10 -23 -9 -30 3 -42 -1 -42 -12 0 -8 5 -8 15
1 11 9 15 9 15 1 0 -7 5 -9 10 -6 6 4 17 1 25 -5 12 -10 15 -9 15 9 0 12 5 19
10 16 6 -3 10 -1 10 4 0 14 -27 14 -35 1z"/>
<path d="M4850 1490 c-8 -5 -10 -10 -5 -10 6 0 3 -5 -5 -10 -9 -6 -10 -10 -3
-10 7 0 17 9 23 20 12 23 11 24 -10 10z"/>
<path d="M5136 1325 c4 -8 10 -12 15 -9 14 8 10 24 -6 24 -9 0 -12 -6 -9 -15z"/>
<path d="M5265 1150 c3 -5 -6 -21 -21 -35 -20 -19 -23 -25 -10 -25 9 0 16 4
16 9 0 5 8 12 18 15 22 7 25 33 5 40 -8 3 -11 1 -8 -4z"/>
<path d="M5170 1105 c-15 -18 -37 -20 -42 -3 -3 9 -6 9 -11 1 -4 -7 9 -17 36
-26 42 -14 43 -14 45 9 2 29 -12 38 -28 19z m20 -15 c0 -5 -4 -10 -10 -10 -5
0 -10 5 -10 10 0 6 5 10 10 10 6 0 10 -4 10 -10z"/>
<path d="M4910 1069 c0 -5 5 -7 10 -4 6 3 10 8 10 11 0 2 -4 4 -10 4 -5 0 -10
-5 -10 -11z"/>
<path d="M5215 1069 c-10 -15 3 -25 16 -12 7 7 7 13 1 17 -6 3 -14 1 -17 -5z"/>
<path d="M5250 1060 c0 -5 5 -10 11 -10 5 0 7 5 4 10 -3 6 -8 10 -11 10 -2 0
-4 -4 -4 -10z"/>
<path d="M5150 1024 c0 -8 5 -12 10 -9 6 4 8 11 5 16 -9 14 -15 11 -15 -7z"/>
<path d="M5230 1036 c0 -2 8 -10 18 -17 15 -13 16 -12 3 4 -13 16 -21 21 -21
13z"/>
<path d="M5276 1025 c4 -8 11 -15 16 -15 6 0 5 6 -2 15 -7 8 -14 15 -16 15 -2
0 -1 -7 2 -15z"/>
<path d="M5055 990 c-3 -5 -1 -10 4 -10 6 0 11 5 11 10 0 6 -2 10 -4 10 -3 0
-8 -4 -11 -10z"/>
<path d="M4960 979 c0 -5 9 -9 20 -9 11 0 20 2 20 4 0 2 -9 6 -20 9 -11 3 -20
1 -20 -4z"/>
<path d="M5185 970 c3 -5 8 -10 11 -10 2 0 4 5 4 10 0 6 -5 10 -11 10 -5 0 -7
-4 -4 -10z"/>
<path d="M5221 964 c6 -7 17 -10 25 -7 19 7 8 22 -16 20 -14 -1 -16 -5 -9 -13z"/>
<path d="M5121 967 c2 -1 13 -9 24 -17 19 -14 19 -14 6 3 -7 9 -18 17 -24 17
-6 0 -8 -1 -6 -3z"/>
<path d="M5195 940 c-3 -6 1 -7 9 -4 18 7 21 14 7 14 -6 0 -13 -4 -16 -10z"/>
<path d="M5302 931 c7 -11 16 -17 20 -15 5 3 2 12 -6 20 -21 20 -28 17 -14 -5z"/>
<path d="M5270 926 c0 -2 7 -7 16 -10 8 -3 12 -2 9 4 -6 10 -25 14 -25 6z"/>
<path d="M1461 5004 c0 -11 3 -14 6 -6 3 7 2 16 -1 19 -3 4 -6 -2 -5 -13z"/>
<path d="M1430 4930 c0 -5 5 -10 10 -10 6 0 10 5 10 10 0 6 -4 10 -10 10 -5 0
-10 -4 -10 -10z"/>
<path d="M6291 5564 c0 -11 3 -14 6 -6 3 7 2 16 -1 19 -3 4 -6 -2 -5 -13z"/>
<path d="M2817 5303 c-10 -10 -8 -123 2 -123 5 0 14 7 21 15 9 11 9 15 1 15
-8 0 -7 11 3 35 10 22 11 35 4 35 -5 0 -8 7 -4 15 5 15 -14 21 -27 8z"/>
<path d="M3390 5132 c0 -5 7 -9 15 -9 8 0 12 4 9 9 -3 4 -9 8 -15 8 -5 0 -9
-4 -9 -8z"/>
<path d="M3180 5124 c0 -6 6 -17 14 -23 11 -9 15 -8 20 5 9 24 7 31 -4 14 -9
-13 -11 -13 -20 0 -5 8 -10 10 -10 4z"/>
<path d="M3426 5114 c-5 -13 -3 -14 6 -6 7 5 22 12 33 15 16 4 14 5 -6 6 -17
1 -29 -5 -33 -15z"/>
<path d="M4196 3972 c-3 -5 1 -9 9 -9 8 0 12 4 9 9 -3 4 -7 8 -9 8 -2 0 -6 -4
-9 -8z"/>
<path d="M572 2325 c0 -16 2 -22 5 -12 2 9 2 23 0 30 -3 6 -5 -1 -5 -18z"/>
<path d="M5186 2623 c-6 -14 -5 -15 5 -6 7 7 10 15 7 18 -3 3 -9 -2 -12 -12z"/>
<path d="M5341 2614 c0 -11 3 -14 6 -6 3 7 2 16 -1 19 -3 4 -6 -2 -5 -13z"/>
<path d="M5265 2530 c-4 -6 -11 -7 -17 -4 -7 4 -8 2 -4 -5 6 -9 11 -9 22 0 14
11 18 19 10 19 -3 0 -8 -5 -11 -10z"/>
<path d="M5396 2528 c3 -5 10 -6 15 -3 13 9 11 12 -6 12 -8 0 -12 -4 -9 -9z"/>
<path d="M5477 2529 c7 -7 15 -10 18 -7 3 3 -2 9 -12 12 -14 6 -15 5 -6 -5z"/>
<path d="M5532 2482 c-11 -25 -11 -25 4 -10 9 9 15 21 13 27 -2 6 -10 -2 -17
-17z"/>
<path d="M5474 2486 c1 -8 5 -18 8 -22 4 -3 5 1 4 10 -1 8 -5 18 -8 22 -4 3
-5 -1 -4 -10z"/>
<path d="M5101 2463 c-10 -26 -10 -27 4 -9 8 11 15 23 15 28 0 15 -7 8 -19
-19z"/>
<path d="M5625 2469 c-4 -6 -5 -12 -2 -15 2 -3 7 2 10 11 7 17 1 20 -8 4z"/>
<path d="M5138 2463 c7 -3 16 -2 19 1 4 3 -2 6 -13 5 -11 0 -14 -3 -6 -6z"/>
<path d="M5270 2450 c0 -13 18 -22 24 -11 3 5 -1 11 -9 15 -8 3 -15 1 -15 -4z"/>
<path d="M5452 2434 c10 -10 20 -16 22 -13 3 3 -5 11 -17 18 -21 13 -21 12 -5
-5z"/>
<path d="M5251 2424 c0 -11 3 -14 6 -6 3 7 2 16 -1 19 -3 4 -6 -2 -5 -13z"/>
<path d="M5155 2420 c3 -5 8 -10 11 -10 2 0 4 5 4 10 0 6 -5 10 -11 10 -5 0
-7 -4 -4 -10z"/>
<path d="M5350 2423 c0 -7 5 -15 10 -18 6 -4 8 -11 4 -16 -3 -5 -10 -6 -16 -3
-6 4 -6 -2 1 -15 7 -11 14 -21 17 -21 3 0 2 5 -2 11 -3 6 -1 15 6 19 10 6 9
13 -4 31 -9 13 -16 18 -16 12z"/>
<path d="M5170 2405 c-31 -18 -43 -19 -34 -3 4 7 3 8 -5 4 -6 -4 -9 -12 -5
-17 3 -5 1 -16 -6 -24 -7 -9 -8 -15 0 -20 5 -3 10 0 10 8 0 8 7 20 15 27 17
15 19 7 5 -21 -8 -15 -7 -19 5 -19 13 0 17 11 14 36 0 3 8 12 18 19 26 19 13
26 -17 10z"/>
<path d="M5496 2407 c3 -10 9 -15 12 -12 3 3 0 11 -7 18 -10 9 -11 8 -5 -6z"/>
<path d="M5315 2380 c3 -5 8 -10 11 -10 2 0 4 5 4 10 0 6 -5 10 -11 10 -5 0
-7 -4 -4 -10z"/>
<path d="M5390 2375 c-11 -13 -10 -14 4 -9 9 3 16 10 16 15 0 13 -6 11 -20 -6z"/>
<path d="M5425 2350 c-3 -5 -1 -10 4 -10 6 0 11 5 11 10 0 6 -2 10 -4 10 -3 0
-8 -4 -11 -10z"/>
<path d="M5481 2323 c-10 -26 -10 -27 4 -9 8 11 15 23 15 28 0 15 -7 8 -19
-19z"/>
<path d="M5530 2328 c0 -4 4 -8 10 -8 5 0 7 -8 3 -17 -8 -22 1 -15 15 12 9 17
7 21 -9 21 -10 0 -19 -4 -19 -8z"/>
<path d="M5482 2264 c-14 -16 -5 -18 17 -5 7 5 9 11 5 14 -5 3 -15 -1 -22 -9z"/>
<path d="M5490 2219 c0 -5 5 -7 10 -4 6 3 10 8 10 11 0 2 -4 4 -10 4 -5 0 -10
-5 -10 -11z"/>
<path d="M5285 1950 c4 -14 14 -32 22 -40 10 -11 9 -5 -3 20 -22 45 -28 52
-19 20z"/>
<path d="M5230 1920 c-9 -6 -10 -10 -3 -10 6 0 15 5 18 10 8 12 4 12 -15 0z"/>
<path d="M5255 1910 c-3 -5 -4 -14 0 -19 3 -5 1 -12 -5 -16 -5 -3 -10 -10 -10
-15 0 -6 9 -2 20 8 11 9 16 18 10 20 -5 2 -10 8 -10 14 0 6 7 7 16 4 8 -3 12
-2 9 4 -8 13 -22 13 -30 0z"/>
<path d="M5330 1889 c-7 -11 -10 -23 -7 -25 2 -2 9 7 15 21 14 30 7 33 -8 4z"/>
<path d="M5292 1850 c10 -15 10 -22 0 -32 -6 -6 -12 -21 -11 -32 0 -15 6 -10
19 18 15 33 16 42 5 53 -20 19 -27 16 -13 -7z"/>
<path d="M5268 1848 c10 -13 10 -17 0 -21 -7 -2 -11 -7 -8 -10 3 -3 12 -2 20
3 13 8 12 12 -4 27 -16 14 -17 14 -8 1z"/>
<path d="M7250 4346 c0 -2 7 -7 16 -10 8 -3 12 -2 9 4 -6 10 -25 14 -25 6z"/>
<path d="M4103 3663 c-3 -8 5 -33 17 -56 29 -53 37 -62 37 -42 0 8 -4 15 -9
15 -5 0 -7 4 -3 9 3 5 1 12 -5 16 -5 3 -10 11 -10 17 0 6 7 5 18 -3 15 -13 16
-12 3 3 -7 10 -17 16 -21 13 -4 -3 -11 2 -14 11 -9 24 -8 26 14 14 15 -8 18
-8 14 3 -6 18 -34 18 -41 0z"/>
<path d="M4375 3600 c-13 -6 -15 -9 -5 -9 8 0 22 4 30 9 18 12 2 12 -25 0z"/>
<path d="M4280 3578 c-19 -5 -39 -13 -44 -18 -5 -5 11 -3 35 4 24 8 53 16 64
19 20 5 20 5 0 5 -11 0 -36 -4 -55 -10z"/>
<path d="M4170 3540 c-9 -6 -10 -10 -3 -10 6 0 15 5 18 10 8 12 4 12 -15 0z"/>
<path d="M5238 2323 c-6 -23 1 -45 13 -37 12 7 12 54 0 54 -5 0 -11 -8 -13
-17z"/>
<path d="M5317 2263 c-4 -3 -7 -11 -7 -17 0 -6 5 -5 12 2 6 6 9 14 7 17 -3 3
-9 2 -12 -2z"/>
<path d="M5339 2247 c-18 -14 -32 -47 -19 -47 5 0 15 14 24 30 8 17 14 30 13
30 -1 0 -9 -6 -18 -13z"/>
<path d="M5279 2236 c7 -8 9 -27 6 -43 -5 -27 -5 -27 12 5 15 29 15 34 3 42
-22 14 -34 12 -21 -4z"/>
<path d="M5350 2001 c0 -6 4 -13 10 -16 6 -3 7 1 4 9 -7 18 -14 21 -14 7z"/>
<path d="M5046 1464 c-18 -17 -22 -49 -6 -39 6 4 8 11 5 16 -4 5 -2 9 3 9 6 0
12 7 16 15 7 19 1 19 -18 -1z"/>
<path d="M5072 1458 c-16 -16 -15 -29 1 -22 8 3 14 11 14 19 0 18 0 18 -15 3z"/>
<path d="M4757 1393 c-4 -3 -7 -11 -7 -17 0 -6 5 -5 12 2 6 6 9 14 7 17 -3 3
-9 2 -12 -2z"/>
<path d="M5170 1270 c-9 -6 -10 -10 -3 -10 6 0 15 5 18 10 8 12 4 12 -15 0z"/>
</g>
</svg>
